<?xml version="1.0" encoding="utf-8"?>
<!-- Generator: Adobe Illustrator 26.5.0, SVG Export Plug-In . SVG Version: 6.00 Build 0)  -->
<svg version="1.1" id="Layer_1" xmlns="http://www.w3.org/2000/svg" xmlns:xlink="http://www.w3.org/1999/xlink" x="0px" y="0px"
	 viewBox="0 0 24 24" style="enable-background:new 0 0 24 24;" xml:space="preserve">
<style type="text/css">
	.st0{fill:none;stroke:#121212;stroke-width:1.5;stroke-linecap:round;stroke-linejoin:round;}
	.st1{fill:#121212;}
</style>
<circle class="st0" cx="12" cy="12" r="10.2"/>
<g>
	<g>
		<path class="st1" d="M15.3,12.1C15.3,12.1,15.3,12.1,15.3,12.1c-0.3,1.2-0.6,1.5-1.8,1.8c0,0,0,0.1,0,0.1c1.2,0.3,1.5,0.6,1.8,1.8
			c0,0,0,0,0,0s0,0,0,0c0.3-1.2,0.6-1.5,1.8-1.8c0,0,0-0.1,0-0.1C15.9,13.6,15.6,13.3,15.3,12.1C15.3,12.1,15.3,12.1,15.3,12.1
			L15.3,12.1z"/>
	</g>
	<g>
		<path class="st1" d="M13.4,5.1C13.3,5.1,13.3,5.1,13.4,5.1c-0.3,1.2-0.6,1.5-1.8,1.8c0,0,0,0.1,0,0.1c1.2,0.3,1.5,0.6,1.8,1.8
			c0,0,0,0,0,0s0,0,0,0c0.3-1.2,0.6-1.5,1.8-1.8c0,0,0-0.1,0-0.1C14,6.6,13.7,6.3,13.4,5.1C13.4,5.1,13.4,5.1,13.4,5.1L13.4,5.1z"/>
	</g>
	<g>
		<path class="st1" d="M10.7,16.1C10.7,16.1,10.7,16.1,10.7,16.1c-0.2,0.8-0.4,1-1.2,1.2c0,0,0,0,0,0c0.8,0.2,1,0.4,1.2,1.2
			c0,0,0,0,0,0s0,0,0,0c0.2-0.8,0.4-1,1.2-1.2c0,0,0,0,0,0C11.1,17.1,10.9,16.9,10.7,16.1C10.7,16.1,10.7,16.1,10.7,16.1L10.7,16.1z
			"/>
	</g>
	<g>
		<path class="st1" d="M10.4,8.9L10.4,8.9L10.4,8.9 M9,8.5C8.9,8.5,8.9,8.5,9,8.5c-0.5,1.7-0.9,2.1-2.6,2.6c0,0,0,0.1,0,0.1
			c1.7,0.4,2.1,0.9,2.5,2.5c0,0,0,0,0,0s0,0,0,0c0.4-1.7,0.9-2.1,2.5-2.5c0,0,0-0.1,0-0.1C9.9,10.7,9.5,10.3,9,8.5
			C9,8.5,9,8.5,9,8.5L9,8.5z"/>
	</g>
	<g>
		<path class="st1" d="M5.2,14.3c-0.2,0-0.4,0.2-0.4,0.4s0.2,0.4,0.4,0.4s0.4-0.2,0.4-0.4S5.4,14.3,5.2,14.3L5.2,14.3z"/>
	</g>
	<g>
		<path class="st1" d="M17.1,17.3c-0.2,0-0.4,0.2-0.4,0.4s0.2,0.4,0.4,0.4s0.4-0.2,0.4-0.4S17.3,17.3,17.1,17.3L17.1,17.3z"/>
	</g>
	<g>
		<path class="st1" d="M17.5,8c-0.2,0-0.4,0.2-0.4,0.4s0.2,0.4,0.4,0.4s0.4-0.2,0.4-0.4S17.8,8,17.5,8L17.5,8z"/>
	</g>
	<g>
		<path class="st1" d="M7.2,6.3C7,6.3,6.8,6.5,6.8,6.7S7,7.2,7.2,7.2S7.6,7,7.6,6.7S7.4,6.3,7.2,6.3L7.2,6.3z"/>
	</g>
	<g>
		<path class="st1" d="M6.3,16.1c-0.2,0-0.4,0.2-0.4,0.4s0.2,0.4,0.4,0.4s0.4-0.2,0.4-0.4S6.6,16.1,6.3,16.1L6.3,16.1z"/>
	</g>
	<g>
		<path class="st1" d="M18.8,9.4c-0.2,0-0.4,0.2-0.4,0.4s0.2,0.4,0.4,0.4s0.4-0.2,0.4-0.4S19,9.4,18.8,9.4L18.8,9.4z"/>
	</g>
</g>
</svg>
