<?xml version="1.0" encoding="utf-8"?>
<!-- Generator: Adobe Illustrator 26.5.0, SVG Export Plug-In . SVG Version: 6.00 Build 0)  -->
<svg version="1.1" id="Layer_1" xmlns="http://www.w3.org/2000/svg" xmlns:xlink="http://www.w3.org/1999/xlink" x="0px" y="0px"
	 viewBox="0 0 24 24" style="enable-background:new 0 0 24 24;" xml:space="preserve">
<style type="text/css">
	.st0{fill:url(#SVGID_1_);}
	.st1{fill:#FFFFFF;}
</style>
<g>
	<linearGradient id="SVGID_1_" gradientUnits="userSpaceOnUse" x1="12" y1="1.8749" x2="12" y2="22.2935">
		<stop  offset="0" style="stop-color:#262261"/>
		<stop  offset="1" style="stop-color:#652D90"/>
	</linearGradient>
	<circle class="st0" cx="12" cy="12" r="10.2"/>
</g>
<g>
	<path class="st1" d="M17.1,14c-1.2,0.3-1.5,0.6-1.8,1.8c0,0-0.1,0-0.1,0c-0.3-1.2-0.6-1.5-1.8-1.8c0,0,0-0.1,0-0.1
		c1.2-0.3,1.5-0.6,1.8-1.8c0,0,0.1,0,0.1,0C15.6,13.3,15.9,13.6,17.1,14C17.1,13.9,17.1,14,17.1,14z"/>
	<path class="st1" d="M15.1,6.9c-1.2,0.3-1.5,0.6-1.8,1.8c0,0-0.1,0-0.1,0c-0.3-1.2-0.6-1.5-1.8-1.8c0,0,0-0.1,0-0.1
		c1.2-0.3,1.5-0.6,1.8-1.8c0,0,0.1,0,0.1,0C13.7,6.3,14,6.6,15.1,6.9C15.2,6.9,15.2,6.9,15.1,6.9z"/>
	<path class="st1" d="M11.9,17.3c-0.8,0.2-1,0.4-1.2,1.2c0,0,0,0,0,0c-0.2-0.8-0.4-1-1.2-1.2c0,0,0,0,0,0c0.8-0.2,1-0.4,1.2-1.2
		c0,0,0,0,0,0C10.9,16.9,11.1,17.1,11.9,17.3C11.9,17.3,11.9,17.3,11.9,17.3z"/>
	<path class="st1" d="M11.6,11.2c-1.7,0.4-2.1,0.9-2.5,2.5c0,0-0.1,0-0.1,0c-0.4-1.7-0.9-2.1-2.5-2.5c0,0,0-0.1,0-0.1
		c1.7-0.4,2.1-0.9,2.5-2.5c0,0,0.1,0,0.1,0C9.5,10.3,9.9,10.7,11.6,11.2C11.6,11.1,11.6,11.2,11.6,11.2z"/>
	<circle class="st1" cx="5.2" cy="14.8" r="0.4"/>
	<circle class="st1" cx="17.1" cy="17.7" r="0.4"/>
	<circle class="st1" cx="17.5" cy="8.4" r="0.4"/>
	<circle class="st1" cx="7.2" cy="6.7" r="0.4"/>
	<circle class="st1" cx="6.3" cy="16.5" r="0.4"/>
	<circle class="st1" cx="18.8" cy="9.8" r="0.4"/>
</g>
</svg>
