<?xml version="1.0" encoding="utf-8"?>
<!-- Generator: Adobe Illustrator 26.5.0, SVG Export Plug-In . SVG Version: 6.00 Build 0)  -->
<svg version="1.1" xmlns="http://www.w3.org/2000/svg" xmlns:xlink="http://www.w3.org/1999/xlink" x="0px" y="0px"
	 viewBox="0 0 24 24" style="enable-background:new 0 0 24 24;" xml:space="preserve">
<style type="text/css">
	.st0{fill:none;stroke:#121212;stroke-width:1.5;stroke-linecap:round;stroke-linejoin:round;}
	.st1{fill:none;stroke:#121212;stroke-width:1.5;stroke-linejoin:round;}
	.st2{display:none;}
	.st3{display:inline;}
	.st4{fill-rule:evenodd;clip-rule:evenodd;fill:#6C4C1C;}
	.st5{display:inline;fill-rule:evenodd;clip-rule:evenodd;fill:#23935D;}
	.st6{fill-rule:evenodd;clip-rule:evenodd;fill:#953016;}
	.st7{fill-rule:evenodd;clip-rule:evenodd;fill:#8355A6;}
	.st8{display:inline;fill-rule:evenodd;clip-rule:evenodd;fill:#B1B1B1;}
	.st9{display:inline;fill-rule:evenodd;clip-rule:evenodd;fill:#919BCD;}
	.st10{fill-rule:evenodd;clip-rule:evenodd;fill:#262262;}
	.st11{fill-rule:evenodd;clip-rule:evenodd;fill:#FF6600;}
	.st12{fill-rule:evenodd;clip-rule:evenodd;fill:#3F4C8E;}
	.st13{fill-rule:evenodd;clip-rule:evenodd;fill:#F04D23;}
	.st14{fill-rule:evenodd;clip-rule:evenodd;fill:#707DBE;}
	.st15{fill-rule:evenodd;clip-rule:evenodd;fill:#4E5EAF;}
	.st16{display:inline;fill-rule:evenodd;clip-rule:evenodd;fill:#262262;}
	.st17{display:inline;fill-rule:evenodd;clip-rule:evenodd;fill:#707DBE;}
	.st18{display:inline;fill-rule:evenodd;clip-rule:evenodd;fill:#C23E1C;}
	.st19{fill-rule:evenodd;clip-rule:evenodd;fill:#CB8F34;}
	.st20{fill-rule:evenodd;clip-rule:evenodd;fill:#585858;}
	.st21{fill-rule:evenodd;clip-rule:evenodd;fill:#FBB040;}
</style>
<g id="File_icon">
	<polyline class="st0" points="13,2 13,9 20,9 	"/>
	<path class="st1" d="M4,19.9V20c0,1.1,0.9,2,2,2h12c1.1,0,2-0.9,2-2V9l-7-7H6C4.9,2,4,2.9,4,4v5.8"/>
</g>
<g id="ZIP" class="st2">
	<g class="st3">
		<path class="st4" d="M13,13.5c-0.1,0-0.1-0.1-0.2-0.1c-0.1,0-0.2,0-0.3,0h-0.6v1.1h0.6c0.1,0,0.2,0,0.3,0c0.1,0,0.2,0,0.2-0.1
			c0.1,0,0.1-0.1,0.2-0.2c0-0.1,0.1-0.2,0.1-0.3s0-0.2-0.1-0.3C13.1,13.6,13,13.5,13,13.5z"/>
		<path class="st4" d="M16.8,11.1H3.1c-0.6,0-1.1,0.5-1.1,1.1v5.3c0,0.6,0.5,1.1,1.1,1.1h13.8c0.6,0,1.1-0.5,1.1-1.1v-5.3
			C17.9,11.5,17.4,11.1,16.8,11.1z M8.9,16.5H5.8v-0.7l2-2.4H6v-0.7h2.9v0.7l-2,2.4h2V16.5z M10.3,16.5H9.5v-3.7h0.8V16.5z
			 M13.9,14.4c0,0.1-0.1,0.3-0.2,0.4c-0.1,0.1-0.2,0.2-0.4,0.3c-0.2,0.1-0.4,0.1-0.6,0.1h-0.9v1.3H11v-3.7h1.7c0.2,0,0.4,0,0.6,0.1
			c0.2,0.1,0.3,0.2,0.4,0.3c0.1,0.1,0.2,0.2,0.2,0.4c0,0.1,0.1,0.3,0.1,0.4C14,14.1,13.9,14.3,13.9,14.4z"/>
	</g>
</g>
<g id="XLS" class="st2">
	<path class="st5" d="M16.8,11.1H3.1c-0.6,0-1.1,0.5-1.1,1.1v5.4c0,0.6,0.5,1.1,1.1,1.1h13.8c0.6,0,1.1-0.5,1.1-1.1v-5.4
		C17.9,11.5,17.4,11.1,16.8,11.1z M7.5,16.5l-0.8-1.3l-0.8,1.3H5l1.3-2l-1.2-1.8H6l0.7,1.2l0.8-1.2h0.9l-1.2,1.8l1.3,2H7.5z
		 M11.4,16.5H8.8v-3.8h0.8v3.1h1.8V16.5z M14.6,15.9c-0.1,0.1-0.2,0.3-0.3,0.4c-0.1,0.1-0.3,0.2-0.5,0.3c-0.2,0.1-0.4,0.1-0.7,0.1
		c-0.2,0-0.4,0-0.6-0.1c-0.2,0-0.4-0.1-0.5-0.2c-0.1-0.1-0.3-0.2-0.4-0.4c-0.1-0.2-0.1-0.4-0.1-0.6h0.8c0,0.1,0,0.2,0.1,0.3
		c0,0.1,0.1,0.2,0.2,0.2c0.1,0.1,0.2,0.1,0.3,0.1c0.1,0,0.2,0,0.3,0c0.1,0,0.1,0,0.2,0c0.1,0,0.2,0,0.2-0.1c0.1,0,0.1-0.1,0.2-0.1
		c0.1-0.1,0.1-0.1,0.1-0.2c0-0.1,0-0.2-0.1-0.2c-0.1-0.1-0.1-0.1-0.3-0.2c-0.1,0-0.2-0.1-0.4-0.1c-0.1,0-0.3-0.1-0.4-0.1
		c-0.1,0-0.3-0.1-0.4-0.1c-0.1-0.1-0.2-0.1-0.4-0.2c-0.1-0.1-0.2-0.2-0.3-0.3c-0.1-0.1-0.1-0.3-0.1-0.4c0-0.2,0-0.4,0.1-0.5
		c0.1-0.1,0.2-0.3,0.3-0.4c0.1-0.1,0.3-0.2,0.4-0.2c0.2,0,0.3-0.1,0.5-0.1c0.2,0,0.4,0,0.6,0.1c0.2,0,0.3,0.1,0.5,0.2
		c0.1,0.1,0.2,0.2,0.3,0.4c0.1,0.1,0.1,0.3,0.1,0.6h-0.8c0-0.1,0-0.2-0.1-0.3c0-0.1-0.1-0.1-0.2-0.2c-0.1,0-0.1-0.1-0.2-0.1
		c-0.1,0-0.2,0-0.3,0c-0.1,0-0.1,0-0.2,0c-0.1,0-0.1,0-0.2,0.1c-0.1,0-0.1,0.1-0.1,0.1c0,0.1-0.1,0.1-0.1,0.2c0,0.1,0,0.1,0,0.2
		c0,0,0.1,0.1,0.2,0.1c0.1,0,0.2,0.1,0.3,0.1l0.6,0.1c0.1,0,0.2,0,0.3,0.1c0.1,0,0.2,0.1,0.4,0.2c0.1,0.1,0.2,0.2,0.3,0.3
		c0.1,0.1,0.1,0.3,0.1,0.5C14.7,15.6,14.6,15.7,14.6,15.9z"/>
</g>
<g id="WMA" class="st2">
	<g id="wma.png" class="st3">
		<path class="st6" d="M14.7,13.7L14.7,13.7l0.5,1.4h-1L14.7,13.7z M15.1,12.8h-0.8l-1.4,3.7h0.8l0.3-0.8h1.4l0.3,0.8h0.8L15.1,12.8
			z M12.8,12.8h-1.1l-0.8,2.6h0L10,12.8H8.8v3.7h0.8v-2.6h0l0.9,2.6h0.6l0.9-2.7h0v2.7h0.8L12.8,12.8L12.8,12.8z M7.6,12.8L7,15.3h0
			l-0.6-2.6H5.6l-0.6,2.5h0l-0.6-2.5H3.5l1,3.7h0.8L5.9,14h0l0.6,2.5h0.8l1-3.7H7.6z M17.9,12.1v5.3c0,0.6-0.5,1.1-1.1,1.1H3.1
			c-0.6,0-1.1-0.5-1.1-1.1v-5.3c0-0.6,0.5-1.1,1.1-1.1h13.8C17.4,11.1,17.9,11.5,17.9,12.1z"/>
	</g>
</g>
<g id="WAV" class="st2">
	<g class="st3">
		<polygon class="st7" points="10.7,13.7 10.2,15.1 11.2,15.1 10.7,13.7 		"/>
		<path class="st7" d="M16.8,11.1H3.1c-0.6,0-1.1,0.5-1.1,1.1v5.3c0,0.6,0.5,1.1,1.1,1.1h13.8c0.6,0,1.1-0.5,1.1-1.1v-5.3
			C17.9,11.5,17.4,11.1,16.8,11.1z M7.9,16.5H7.1L6.4,14h0l-0.6,2.5H5l-1-3.7h0.8l0.6,2.5h0l0.6-2.5h0.8l0.6,2.6h0l0.6-2.6h0.8
			L7.9,16.5z M11.7,16.5l-0.3-0.8H10l-0.3,0.8H8.9l1.4-3.7h0.8l1.4,3.7H11.7z M14.5,16.5h-0.9l-1.2-3.7h0.8l0.8,2.6h0l0.8-2.6h0.8
			L14.5,16.5z"/>
	</g>
</g>
<g id="TXT" class="st2">
	<path class="st8" d="M16.8,11.1H3.1c-0.6,0-1.1,0.5-1.1,1.1v5.3c0,0.6,0.5,1.1,1.1,1.1h13.8c0.6,0,1.1-0.5,1.1-1.1v-5.3
		C17.9,11.5,17.4,11.1,16.8,11.1z M10.7,16.5l-0.8-1.3l-0.8,1.3H8.2l1.3-2l-1.1-1.7v0.6H7.2v3.1H6.4v-3.1H5.3v-0.7h3h0.1h0.9L10,14
		l0.7-1.2h0.9l-1.2,1.8l1.3,2H10.7z M14.8,13.4h-1.1v3.1h-0.8v-3.1h-1.1v-0.7h3V13.4z"/>
</g>
<g id="TIF" class="st2">
	<path class="st9" d="M16.8,11.1H3.1c-0.6,0-1.1,0.5-1.1,1.1v5.3c0,0.6,0.5,1.1,1.1,1.1h13.8c0.6,0,1.1-0.5,1.1-1.1v-5.3
		C17.9,11.5,17.4,11.1,16.8,11.1z M9.3,13.4H8.2v3.1H7.4v-3.1H6.3v-0.7h3V13.4z M10.4,16.5H9.6v-3.7h0.8V16.5z M13.6,13.4h-1.8v0.9
		h1.6V15h-1.6v1.5H11v-3.7h2.6V13.4z"/>
</g>
<g id="PSD" class="st2">
	<g class="st3">
		<path class="st10" d="M6.8,13.5c-0.1,0-0.1-0.1-0.2-0.1c-0.1,0-0.2,0-0.3,0H5.7v1.1h0.6c0.1,0,0.2,0,0.3,0c0.1,0,0.2,0,0.2-0.1
			c0.1,0,0.1-0.1,0.2-0.2C7,14.2,7,14.1,7,14s0-0.2-0.1-0.3C6.9,13.6,6.9,13.5,6.8,13.5z"/>
		<path class="st10" d="M14,13.8c-0.1-0.1-0.2-0.2-0.3-0.2c-0.1-0.1-0.3-0.1-0.5-0.1h-0.6v2.4h0.7c0.1,0,0.2,0,0.3-0.1
			c0.1,0,0.2-0.1,0.3-0.2c0.1-0.1,0.2-0.2,0.2-0.4c0.1-0.1,0.1-0.3,0.1-0.5c0-0.2,0-0.4-0.1-0.5C14.2,14,14.1,13.9,14,13.8z"/>
		<path class="st10" d="M16.8,11.1H3.1c-0.6,0-1.1,0.5-1.1,1.1v5.3c0,0.6,0.5,1.1,1.1,1.1h13.8c0.6,0,1.1-0.5,1.1-1.1v-5.3
			C17.9,11.5,17.4,11.1,16.8,11.1z M7.7,14.4c0,0.1-0.1,0.3-0.2,0.4c-0.1,0.1-0.2,0.2-0.4,0.3c-0.2,0.1-0.4,0.1-0.6,0.1H5.7v1.3H4.9
			v-3.7h1.7c0.2,0,0.4,0,0.6,0.1c0.2,0.1,0.3,0.2,0.4,0.3c0.1,0.1,0.2,0.2,0.2,0.4c0,0.1,0.1,0.3,0.1,0.4
			C7.8,14.1,7.8,14.3,7.7,14.4z M11.1,15.9c-0.1,0.1-0.2,0.3-0.3,0.4c-0.1,0.1-0.3,0.2-0.5,0.3c-0.2,0.1-0.4,0.1-0.7,0.1
			c-0.2,0-0.4,0-0.6-0.1c-0.2,0-0.4-0.1-0.5-0.2c-0.1-0.1-0.3-0.2-0.3-0.4c-0.1-0.2-0.1-0.4-0.1-0.6h0.8c0,0.1,0,0.2,0.1,0.3
			c0,0.1,0.1,0.2,0.2,0.2c0.1,0.1,0.2,0.1,0.3,0.1c0.1,0,0.2,0,0.3,0c0.1,0,0.1,0,0.2,0c0.1,0,0.2,0,0.2-0.1c0.1,0,0.1-0.1,0.2-0.1
			c0-0.1,0.1-0.1,0.1-0.2c0-0.1,0-0.2-0.1-0.2c-0.1-0.1-0.1-0.1-0.3-0.2C10,15,9.8,15,9.7,15c-0.1,0-0.3-0.1-0.4-0.1
			c-0.1,0-0.3-0.1-0.4-0.1c-0.1-0.1-0.2-0.1-0.4-0.2c-0.1-0.1-0.2-0.2-0.3-0.3S8.2,14,8.2,13.8c0-0.2,0-0.4,0.1-0.5
			c0.1-0.1,0.2-0.3,0.3-0.4c0.1-0.1,0.3-0.2,0.4-0.2c0.2,0,0.3-0.1,0.5-0.1c0.2,0,0.4,0,0.6,0.1c0.2,0,0.3,0.1,0.5,0.2
			c0.1,0.1,0.2,0.2,0.3,0.4c0.1,0.1,0.1,0.3,0.1,0.6h-0.8c0-0.1,0-0.2-0.1-0.3c0-0.1-0.1-0.1-0.2-0.2c-0.1,0-0.1-0.1-0.2-0.1
			c-0.1,0-0.2,0-0.3,0c-0.1,0-0.1,0-0.2,0c-0.1,0-0.1,0-0.2,0.1c-0.1,0-0.1,0.1-0.1,0.1C9,13.6,9,13.7,9,13.7c0,0.1,0,0.1,0,0.2
			c0,0,0.1,0.1,0.2,0.1c0.1,0,0.2,0.1,0.3,0.1l0.6,0.1c0.1,0,0.2,0,0.3,0.1c0.1,0,0.2,0.1,0.4,0.2c0.1,0.1,0.2,0.2,0.3,0.3
			c0.1,0.1,0.1,0.3,0.1,0.5C11.2,15.6,11.2,15.7,11.1,15.9z M15,15.4c-0.1,0.2-0.2,0.4-0.3,0.6c-0.1,0.2-0.3,0.3-0.5,0.4
			c-0.2,0.1-0.5,0.1-0.7,0.1h-1.6v-3.7h1.6c0.2,0,0.5,0,0.7,0.1c0.2,0.1,0.4,0.2,0.5,0.3c0.1,0.2,0.3,0.3,0.4,0.6
			c0.1,0.2,0.1,0.5,0.1,0.8C15.1,14.9,15,15.1,15,15.4z"/>
	</g>
</g>
<g id="PPT" class="st2">
	<g class="st3">
		<path class="st11" d="M7.3,13.5c-0.1,0-0.1-0.1-0.2-0.1c-0.1,0-0.2,0-0.3,0H6.2v1.1h0.6c0.1,0,0.2,0,0.3,0c0.1,0,0.2,0,0.2-0.1
			c0.1,0,0.1-0.1,0.2-0.2c0-0.1,0.1-0.2,0.1-0.3c0-0.1,0-0.2-0.1-0.3C7.4,13.6,7.4,13.5,7.3,13.5z"/>
		<path class="st11" d="M10.8,13.5c-0.1,0-0.1-0.1-0.2-0.1c-0.1,0-0.2,0-0.3,0H9.6v1.1h0.6c0.1,0,0.2,0,0.3,0c0.1,0,0.2,0,0.2-0.1
			c0.1,0,0.1-0.1,0.2-0.2c0-0.1,0.1-0.2,0.1-0.3c0-0.1,0-0.2-0.1-0.3C10.9,13.6,10.8,13.5,10.8,13.5z"/>
		<path class="st11" d="M16.8,11.1H3.1c-0.6,0-1.1,0.5-1.1,1.1v5.3c0,0.6,0.5,1.1,1.1,1.1h13.8c0.6,0,1.1-0.5,1.1-1.1v-5.3
			C17.9,11.5,17.4,11.1,16.8,11.1z M8.2,14.4c0,0.1-0.1,0.3-0.2,0.4c-0.1,0.1-0.2,0.2-0.4,0.3c-0.2,0.1-0.4,0.1-0.6,0.1H6.2v1.3H5.4
			v-3.7H7c0.2,0,0.4,0,0.6,0.1C7.8,12.9,7.9,13,8,13.1c0.1,0.1,0.2,0.2,0.2,0.4c0,0.1,0.1,0.3,0.1,0.4C8.3,14.1,8.3,14.3,8.2,14.4z
			 M11.7,14.4c0,0.1-0.1,0.3-0.2,0.4c-0.1,0.1-0.2,0.2-0.4,0.3c-0.2,0.1-0.4,0.1-0.6,0.1H9.6v1.3H8.8v-3.7h1.7c0.2,0,0.4,0,0.6,0.1
			c0.2,0.1,0.3,0.2,0.4,0.3c0.1,0.1,0.2,0.2,0.2,0.4c0,0.1,0.1,0.3,0.1,0.4C11.8,14.1,11.7,14.3,11.7,14.4z M15,13.4h-1.1v3.1h-0.8
			v-3.1H12v-0.7h3V13.4z"/>
	</g>
</g>
<g id="PNG" class="st2">
	<g class="st3">
		<path class="st12" d="M6.5,13.5c-0.1,0-0.1-0.1-0.2-0.1c-0.1,0-0.2,0-0.3,0H5.4v1.1h0.6c0.1,0,0.2,0,0.3,0c0.1,0,0.2,0,0.2-0.1
			c0.1,0,0.1-0.1,0.2-0.2c0-0.1,0.1-0.2,0.1-0.3s0-0.2-0.1-0.3C6.7,13.6,6.6,13.5,6.5,13.5z"/>
		<path class="st12" d="M16.8,11.1H3.1c-0.6,0-1.1,0.5-1.1,1.1v5.3c0,0.6,0.5,1.1,1.1,1.1h13.8c0.6,0,1.1-0.5,1.1-1.1v-5.3
			C17.9,11.5,17.4,11.1,16.8,11.1z M7.5,14.4c0,0.1-0.1,0.3-0.2,0.4C7.2,14.9,7,15,6.9,15.1c-0.2,0.1-0.4,0.1-0.6,0.1H5.4v1.3H4.6
			v-3.7h1.7c0.2,0,0.4,0,0.6,0.1C7,12.9,7.2,13,7.3,13.1c0.1,0.1,0.2,0.2,0.2,0.4c0,0.1,0.1,0.3,0.1,0.4C7.6,14.1,7.5,14.3,7.5,14.4
			z M11.2,16.5h-0.8L8.8,14h0v2.5H8.1v-3.7h0.8l1.5,2.5h0v-2.5h0.8V16.5z M15.3,16.5h-0.5l-0.1-0.4c-0.1,0.2-0.3,0.3-0.5,0.4
			c-0.2,0.1-0.4,0.1-0.5,0.1c-0.3,0-0.5-0.1-0.8-0.1c-0.2-0.1-0.4-0.2-0.6-0.4c-0.2-0.2-0.3-0.4-0.4-0.6c-0.1-0.2-0.1-0.5-0.1-0.8
			c0-0.3,0-0.5,0.1-0.8c0.1-0.2,0.2-0.4,0.4-0.6c0.2-0.2,0.3-0.3,0.6-0.4c0.2-0.1,0.5-0.2,0.8-0.2c0.2,0,0.4,0,0.6,0.1
			c0.2,0.1,0.3,0.1,0.5,0.3c0.1,0.1,0.3,0.3,0.4,0.4c0.1,0.2,0.1,0.4,0.2,0.6h-0.8c0-0.2-0.1-0.4-0.3-0.5c-0.1-0.1-0.3-0.2-0.5-0.2
			c-0.2,0-0.3,0-0.5,0.1c-0.1,0.1-0.2,0.2-0.3,0.3c-0.1,0.1-0.1,0.3-0.2,0.4c0,0.2-0.1,0.3-0.1,0.5c0,0.2,0,0.3,0.1,0.5
			c0,0.1,0.1,0.3,0.2,0.4c0.1,0.1,0.2,0.2,0.3,0.3c0.1,0.1,0.3,0.1,0.5,0.1c0.3,0,0.5-0.1,0.6-0.2c0.1-0.1,0.2-0.3,0.3-0.6h-0.8
			v-0.6h1.6h0V16.5z"/>
	</g>
</g>
<g id="PDF" class="st2">
	<g id="pdf.png" class="st3">
		<path class="st13" d="M7,14.4c-0.1,0-0.1,0.1-0.2,0.1c-0.1,0-0.2,0-0.3,0H5.9v-1.1h0.6c0.1,0,0.2,0,0.3,0c0.1,0,0.2,0,0.2,0.1
			c0.1,0,0.1,0.1,0.2,0.2c0,0.1,0.1,0.2,0.1,0.3s0,0.2-0.1,0.3C7.1,14.3,7.1,14.4,7,14.4z M10.7,15.6c-0.1,0.1-0.2,0.1-0.3,0.2
			c-0.1,0-0.2,0.1-0.3,0.1H9.4v-2.4h0.6c0.2,0,0.4,0,0.5,0.1c0.1,0.1,0.2,0.1,0.3,0.2c0.1,0.1,0.1,0.2,0.2,0.4
			c0,0.1,0.1,0.3,0.1,0.5c0,0.2,0,0.4-0.1,0.5C10.9,15.4,10.8,15.5,10.7,15.6z M15.1,12.8h-2.6v3.7h0.8V15h1.5v-0.6h-1.5v-0.9h1.8
			V12.8z M11.7,13.8c-0.1-0.2-0.2-0.4-0.4-0.6c-0.2-0.2-0.3-0.3-0.5-0.3c-0.2-0.1-0.4-0.1-0.7-0.1H8.6v3.7h1.6
			c0.3,0,0.5-0.1,0.7-0.1c0.2-0.1,0.4-0.2,0.5-0.4c0.1-0.2,0.2-0.4,0.3-0.6c0.1-0.2,0.1-0.5,0.1-0.8C11.8,14.3,11.8,14,11.7,13.8z
			 M8,13.5c0-0.1-0.1-0.3-0.2-0.4c-0.1-0.1-0.2-0.2-0.4-0.3c-0.2-0.1-0.4-0.1-0.6-0.1H5.1v3.7h0.8v-1.3h0.9c0.2,0,0.4,0,0.6-0.1
			c0.2-0.1,0.3-0.2,0.4-0.3c0.1-0.1,0.2-0.2,0.2-0.4C8,14.3,8,14.1,8,14C8,13.8,8,13.7,8,13.5z M17.8,12.1v5.3
			c0,0.6-0.5,1.1-1.1,1.1H3.1c-0.6,0-1.1-0.5-1.1-1.1v-5.3c0-0.6,0.5-1.1,1.1-1.1h13.7C17.4,11.1,17.8,11.5,17.8,12.1z"/>
	</g>
</g>
<g id="MPG" class="st2">
	<g class="st3">
		<path class="st6" d="M10.8,13.5c-0.1,0-0.1-0.1-0.2-0.1c-0.1,0-0.2,0-0.3,0H9.7v1.1h0.6c0.1,0,0.2,0,0.3,0c0.1,0,0.2,0,0.2-0.1
			c0.1,0,0.1-0.1,0.2-0.2c0-0.1,0.1-0.2,0.1-0.3c0-0.1,0-0.2-0.1-0.3C10.9,13.6,10.9,13.5,10.8,13.5z"/>
		<path class="st6" d="M16.9,11.1H3.1c-0.6,0-1.1,0.5-1.1,1.1v5.3c0,0.6,0.5,1.1,1.1,1.1h13.8c0.6,0,1.1-0.5,1.1-1.1v-5.3
			C17.9,11.5,17.5,11.1,16.9,11.1z M8.4,16.5H7.6v-2.7h0l-0.9,2.7H6.1l-0.9-2.6h0v2.6H4.4v-3.7h1.1l0.9,2.6h0l0.8-2.6h1.1V16.5z
			 M11.8,14.4c0,0.1-0.1,0.3-0.2,0.4c-0.1,0.1-0.2,0.2-0.4,0.3c-0.2,0.1-0.4,0.1-0.6,0.1H9.7v1.3H8.9v-3.7h1.7c0.2,0,0.4,0,0.6,0.1
			c0.2,0.1,0.3,0.2,0.4,0.3c0.1,0.1,0.2,0.2,0.2,0.4c0,0.1,0.1,0.3,0.1,0.4C11.8,14.1,11.8,14.3,11.8,14.4z M15.6,16.5h-0.5L15,16.1
			c-0.1,0.2-0.3,0.3-0.5,0.4c-0.2,0.1-0.4,0.1-0.5,0.1c-0.3,0-0.5-0.1-0.8-0.1c-0.2-0.1-0.4-0.2-0.6-0.4c-0.2-0.2-0.3-0.4-0.4-0.6
			c-0.1-0.2-0.1-0.5-0.1-0.8c0-0.3,0-0.5,0.1-0.8c0.1-0.2,0.2-0.4,0.4-0.6c0.2-0.2,0.3-0.3,0.6-0.4c0.2-0.1,0.5-0.2,0.8-0.2
			c0.2,0,0.4,0,0.6,0.1c0.2,0.1,0.3,0.1,0.5,0.3c0.1,0.1,0.3,0.3,0.4,0.4c0.1,0.2,0.2,0.4,0.2,0.6h-0.8c-0.1-0.2-0.1-0.4-0.3-0.5
			c-0.1-0.1-0.3-0.2-0.5-0.2c-0.2,0-0.3,0-0.5,0.1c-0.1,0.1-0.2,0.2-0.3,0.3c-0.1,0.1-0.1,0.3-0.2,0.4c0,0.2-0.1,0.3-0.1,0.5
			c0,0.2,0,0.3,0.1,0.5s0.1,0.3,0.2,0.4c0.1,0.1,0.2,0.2,0.3,0.3c0.1,0.1,0.3,0.1,0.5,0.1c0.3,0,0.5-0.1,0.6-0.2
			c0.1-0.1,0.2-0.3,0.3-0.6h-0.8v-0.6h1.6V16.5z"/>
	</g>
</g>
<g id="MP4" class="st2">
	<g class="st3">
		<polygon class="st6" points="13.1,15 14,15 14,13.8 14,13.8 		"/>
		<path class="st6" d="M11.3,13.5c-0.1,0-0.1-0.1-0.2-0.1c-0.1,0-0.2,0-0.3,0h-0.6v1.1h0.6c0.1,0,0.2,0,0.3,0c0.1,0,0.2,0,0.2-0.1
			c0.1,0,0.1-0.1,0.2-0.2c0-0.1,0.1-0.2,0.1-0.3s0-0.2-0.1-0.3C11.4,13.6,11.3,13.5,11.3,13.5z"/>
		<path class="st6" d="M16.8,11.1H3.1c-0.6,0-1.1,0.5-1.1,1.1v5.3c0,0.6,0.5,1.1,1.1,1.1h13.8c0.6,0,1.1-0.5,1.1-1.1v-5.3
			C17.9,11.5,17.4,11.1,16.8,11.1z M8.8,16.5H8.1v-2.7h0l-0.9,2.7H6.5l-0.9-2.6h0v2.6H4.9v-3.7H6l0.9,2.6h0l0.8-2.6h1.1V16.5z
			 M12.2,14.4c0,0.1-0.1,0.3-0.2,0.4c-0.1,0.1-0.2,0.2-0.4,0.3c-0.2,0.1-0.4,0.1-0.6,0.1h-0.9v1.3H9.3v-3.7H11c0.2,0,0.4,0,0.6,0.1
			c0.2,0.1,0.3,0.2,0.4,0.3c0.1,0.1,0.2,0.2,0.2,0.4c0,0.1,0.1,0.3,0.1,0.4C12.3,14.1,12.2,14.3,12.2,14.4z M15.2,15.7h-0.5v0.9H14
			v-0.9h-1.5V15l1.6-2.1h0.7V15h0.5V15.7z"/>
	</g>
</g>
<g id="MP3" class="st2">
	<g class="st3">
		<path class="st14" d="M11.3,13.5c-0.1,0-0.1-0.1-0.2-0.1c-0.1,0-0.2,0-0.3,0h-0.6v1.1h0.6c0.1,0,0.2,0,0.3,0c0.1,0,0.2,0,0.2-0.1
			c0.1,0,0.1-0.1,0.2-0.2c0-0.1,0.1-0.2,0.1-0.3s0-0.2-0.1-0.3C11.4,13.6,11.3,13.5,11.3,13.5z"/>
		<path class="st14" d="M16.8,11.1H3.1c-0.6,0-1.1,0.5-1.1,1.1v5.3c0,0.6,0.5,1.1,1.1,1.1h13.8c0.6,0,1.1-0.5,1.1-1.1v-5.3
			C17.9,11.5,17.4,11.1,16.8,11.1z M8.8,16.5H8.1v-2.7h0l-0.9,2.7H6.5l-0.9-2.6h0v2.6H4.9v-3.7H6l0.9,2.6h0l0.8-2.6h1.1V16.5z
			 M12.2,14.4c0,0.1-0.1,0.3-0.2,0.4c-0.1,0.1-0.2,0.2-0.4,0.3c-0.2,0.1-0.4,0.1-0.6,0.1h-0.9v1.3H9.3v-3.7H11c0.2,0,0.4,0,0.6,0.1
			c0.2,0.1,0.3,0.2,0.4,0.3c0.1,0.1,0.2,0.2,0.2,0.4c0,0.1,0.1,0.3,0.1,0.4C12.3,14.1,12.2,14.3,12.2,14.4z M15.1,15.9
			c-0.1,0.2-0.2,0.3-0.3,0.4c-0.1,0.1-0.3,0.2-0.4,0.2c-0.2,0.1-0.3,0.1-0.5,0.1c-0.2,0-0.4,0-0.6-0.1c-0.2-0.1-0.3-0.1-0.4-0.3
			c-0.1-0.1-0.2-0.3-0.3-0.4c-0.1-0.2-0.1-0.4-0.1-0.6h0.7c0,0.1,0,0.2,0,0.3c0,0.1,0.1,0.2,0.1,0.2c0.1,0.1,0.1,0.1,0.2,0.2
			c0.1,0,0.2,0.1,0.3,0.1c0.2,0,0.3-0.1,0.4-0.2c0.1-0.1,0.2-0.2,0.2-0.4c0-0.1,0-0.2-0.1-0.3c-0.1-0.1-0.1-0.1-0.2-0.2
			c-0.1,0-0.2-0.1-0.3-0.1c-0.1,0-0.2,0-0.3,0v-0.5c0.1,0,0.2,0,0.3,0c0.1,0,0.2,0,0.3-0.1c0.1,0,0.1-0.1,0.2-0.1
			c0.1-0.1,0.1-0.1,0.1-0.3c0-0.2-0.1-0.3-0.2-0.4c-0.1-0.1-0.2-0.1-0.4-0.1c-0.2,0-0.3,0.1-0.4,0.2c-0.1,0.1-0.1,0.3-0.1,0.5h-0.7
			c0-0.2,0-0.4,0.1-0.5c0.1-0.2,0.1-0.3,0.3-0.4c0.1-0.1,0.2-0.2,0.4-0.3c0.1-0.1,0.3-0.1,0.5-0.1c0.1,0,0.3,0,0.4,0.1
			c0.1,0,0.3,0.1,0.4,0.2c0.1,0.1,0.2,0.2,0.3,0.3c0.1,0.1,0.1,0.3,0.1,0.4c0,0.2,0,0.3-0.1,0.5c-0.1,0.1-0.2,0.2-0.4,0.3v0
			c0.2,0,0.4,0.1,0.5,0.3c0.1,0.1,0.2,0.3,0.2,0.5C15.2,15.6,15.2,15.7,15.1,15.9z"/>
	</g>
</g>
<g id="MOV" class="st2">
	<g class="st3">
		<path class="st6" d="M11.3,13.8c-0.1-0.1-0.2-0.2-0.3-0.3c-0.1-0.1-0.3-0.1-0.5-0.1c-0.2,0-0.3,0-0.5,0.1
			c-0.1,0.1-0.2,0.2-0.3,0.3c-0.1,0.1-0.1,0.3-0.2,0.4c0,0.2-0.1,0.3-0.1,0.5c0,0.2,0,0.3,0.1,0.5c0,0.1,0.1,0.3,0.2,0.4
			c0.1,0.1,0.2,0.2,0.3,0.3c0.1,0.1,0.3,0.1,0.5,0.1c0.2,0,0.3,0,0.5-0.1c0.1-0.1,0.2-0.2,0.3-0.3c0.1-0.1,0.1-0.3,0.2-0.4
			c0-0.1,0.1-0.3,0.1-0.5c0-0.2,0-0.3-0.1-0.5C11.4,14,11.3,13.9,11.3,13.8z"/>
		<path class="st6" d="M16.8,11.1H3.1c-0.6,0-1.1,0.5-1.1,1.1v5.3c0,0.6,0.5,1.1,1.1,1.1h13.8c0.6,0,1.1-0.5,1.1-1.1v-5.3
			C17.9,11.5,17.4,11.1,16.8,11.1z M8.3,16.5H7.6v-2.7h0l-0.9,2.7H6l-0.9-2.6h0v2.6H4.4v-3.7h1.1l0.9,2.6h0l0.8-2.6h1.1V16.5z
			 M12.2,15.4c-0.1,0.2-0.2,0.4-0.4,0.6c-0.2,0.2-0.3,0.3-0.6,0.4c-0.2,0.1-0.5,0.1-0.8,0.1c-0.3,0-0.5-0.1-0.8-0.1
			c-0.2-0.1-0.4-0.2-0.6-0.4c-0.2-0.2-0.3-0.4-0.4-0.6s-0.1-0.5-0.1-0.8c0-0.3,0-0.5,0.1-0.8c0.1-0.2,0.2-0.4,0.4-0.6
			c0.2-0.2,0.4-0.3,0.6-0.4c0.2-0.1,0.5-0.2,0.8-0.2c0.3,0,0.5,0.1,0.8,0.2c0.2,0.1,0.4,0.2,0.6,0.4c0.2,0.2,0.3,0.4,0.4,0.6
			c0.1,0.2,0.1,0.5,0.1,0.8C12.3,14.9,12.2,15.2,12.2,15.4z M14.5,16.5h-0.9l-1.2-3.7h0.8l0.8,2.6h0l0.8-2.6h0.8L14.5,16.5z"/>
	</g>
</g>
<g id="JPG" class="st2">
	<g class="st3">
		<path class="st15" d="M10,13.5c-0.1,0-0.1-0.1-0.2-0.1c-0.1,0-0.2,0-0.3,0H8.9v1.1h0.6c0.1,0,0.2,0,0.3,0c0.1,0,0.2,0,0.2-0.1
			c0.1,0,0.1-0.1,0.2-0.2c0-0.1,0.1-0.2,0.1-0.3c0-0.1,0-0.2-0.1-0.3C10.1,13.6,10.1,13.5,10,13.5z"/>
		<path class="st15" d="M16.8,11.1H3.1c-0.6,0-1.1,0.5-1.1,1.1v5.3c0,0.6,0.5,1.1,1.1,1.1h13.8c0.6,0,1.1-0.5,1.1-1.1v-5.3
			C17.9,11.5,17.4,11.1,16.8,11.1z M7.3,15.3c0,0.1,0,0.3,0,0.4c0,0.1-0.1,0.3-0.2,0.4c-0.1,0.1-0.2,0.2-0.4,0.3
			c-0.2,0.1-0.4,0.1-0.7,0.1c-0.2,0-0.3,0-0.4-0.1c-0.1,0-0.3-0.1-0.4-0.2C5.1,16.2,5,16.1,4.9,16c-0.1-0.1-0.1-0.3-0.1-0.5v-0.3
			h0.7v0.2c0,0.1,0,0.2,0,0.3c0,0.1,0,0.1,0.1,0.2c0,0.1,0.1,0.1,0.1,0.1c0.1,0,0.1,0,0.2,0c0.1,0,0.2,0,0.2-0.1
			c0.1,0,0.1-0.1,0.1-0.1c0-0.1,0-0.1,0-0.2c0-0.1,0-0.1,0-0.2v-2.5h0.8V15.3z M10.9,14.4c0,0.1-0.1,0.3-0.2,0.4
			c-0.1,0.1-0.2,0.2-0.4,0.3c-0.2,0.1-0.4,0.1-0.6,0.1H8.9v1.3H8.1v-3.7h1.7c0.2,0,0.4,0,0.6,0.1c0.2,0.1,0.3,0.2,0.4,0.3
			c0.1,0.1,0.2,0.2,0.2,0.4c0,0.1,0.1,0.3,0.1,0.4C11,14.1,11,14.3,10.9,14.4z M14.8,16.5h-0.5l-0.1-0.4c-0.1,0.2-0.3,0.3-0.5,0.4
			c-0.2,0.1-0.4,0.1-0.5,0.1c-0.3,0-0.5-0.1-0.8-0.1c-0.2-0.1-0.4-0.2-0.6-0.4c-0.2-0.2-0.3-0.4-0.4-0.6c-0.1-0.2-0.1-0.5-0.1-0.8
			c0-0.3,0-0.5,0.1-0.8c0.1-0.2,0.2-0.4,0.4-0.6c0.2-0.2,0.3-0.3,0.6-0.4c0.2-0.1,0.5-0.2,0.8-0.2c0.2,0,0.4,0,0.6,0.1
			c0.2,0.1,0.3,0.1,0.5,0.3c0.1,0.1,0.3,0.3,0.4,0.4c0.1,0.2,0.1,0.4,0.2,0.6H14c0-0.2-0.1-0.4-0.3-0.5c-0.1-0.1-0.3-0.2-0.5-0.2
			c-0.2,0-0.3,0-0.5,0.1c-0.1,0.1-0.2,0.2-0.3,0.3c-0.1,0.1-0.1,0.3-0.2,0.4c0,0.2-0.1,0.3-0.1,0.5c0,0.2,0,0.3,0.1,0.5
			c0,0.1,0.1,0.3,0.2,0.4c0.1,0.1,0.2,0.2,0.3,0.3c0.1,0.1,0.3,0.1,0.5,0.1c0.3,0,0.5-0.1,0.6-0.2c0.1-0.1,0.2-0.3,0.3-0.6h-0.8
			v-0.6h1.6V16.5z"/>
	</g>
</g>
<g id="HTM" class="st2">
	<path class="st16" d="M16.8,11.1H3.1c-0.6,0-1.1,0.5-1.1,1.1v5.3c0,0.6,0.5,1.1,1.1,1.1h13.8c0.6,0,1.1-0.5,1.1-1.1v-5.3
		C17.9,11.5,17.4,11.1,16.8,11.1z M7.5,16.5H6.6v-1.6H5.1v1.6H4.3v-3.7h0.8v1.4h1.5v-1.4h0.8V16.5z M11,13.4H9.9v3.1H9.1v-3.1H8
		v-0.7h3V13.4z M15.2,16.5h-0.8v-2.7h0l-0.9,2.7h-0.6L12,13.9h0v2.6h-0.8v-3.7h1.1l0.9,2.6h0l0.8-2.6h1.1V16.5z"/>
</g>
<g id="GIF" class="st2">
	<path class="st17" d="M16.8,11.1H3.1c-0.6,0-1.1,0.5-1.1,1.1v5.3c0,0.6,0.5,1.1,1.1,1.1h13.8c0.6,0,1.1-0.5,1.1-1.1v-5.3
		C17.9,11.5,17.4,11.1,16.8,11.1z M9.4,16.5H8.9l-0.1-0.4c-0.1,0.2-0.3,0.3-0.5,0.4c-0.2,0.1-0.4,0.1-0.5,0.1
		c-0.3,0-0.5-0.1-0.8-0.1c-0.2-0.1-0.4-0.2-0.6-0.4c-0.2-0.2-0.3-0.4-0.4-0.6c-0.1-0.2-0.1-0.5-0.1-0.8c0-0.3,0-0.5,0.1-0.8
		c0.1-0.2,0.2-0.4,0.4-0.6c0.2-0.2,0.3-0.3,0.6-0.4c0.2-0.1,0.5-0.2,0.8-0.2c0.2,0,0.4,0,0.6,0.1c0.2,0.1,0.3,0.1,0.5,0.3
		c0.1,0.1,0.3,0.3,0.4,0.4c0.1,0.2,0.1,0.4,0.2,0.6H8.5c0-0.2-0.1-0.4-0.3-0.5c-0.1-0.1-0.3-0.2-0.5-0.2c-0.2,0-0.3,0-0.5,0.1
		c-0.1,0.1-0.2,0.2-0.3,0.3c-0.1,0.1-0.1,0.3-0.2,0.4c0,0.2-0.1,0.3-0.1,0.5c0,0.2,0,0.3,0.1,0.5c0,0.1,0.1,0.3,0.2,0.4
		c0.1,0.1,0.2,0.2,0.3,0.3c0.1,0.1,0.3,0.1,0.5,0.1c0.3,0,0.5-0.1,0.6-0.2c0.1-0.1,0.2-0.3,0.3-0.6H7.8v-0.6h1.6h0V16.5z M10.9,16.5
		h-0.8v-3.7h0.8V16.5z M14.1,13.4h-1.8v0.9h1.5V15h-1.5v1.5h-0.8v-3.7h2.6V13.4z"/>
</g>
<g id="FLV" class="st2">
	<path class="st18" d="M16.8,11.1H3.1c-0.6,0-1.1,0.5-1.1,1.1v5.3c0,0.6,0.5,1.1,1.1,1.1h13.8c0.6,0,1.1-0.5,1.1-1.1v-5.3
		C17.9,11.5,17.4,11.1,16.8,11.1z M8.4,13.4H6.7v0.9h1.6V15H6.7v1.5H5.8v-3.7h2.6V13.4z M11.4,16.5H8.8v-3.7h0.8v3.1h1.8V16.5z
		 M13,16.5h-0.9l-1.2-3.7h0.8l0.8,2.6h0l0.8-2.6h0.8L13,16.5z"/>
</g>
<g id="EPS" class="st2">
	<g class="st3">
		<path class="st19" d="M10.5,13.5c-0.1,0-0.1-0.1-0.2-0.1c-0.1,0-0.2,0-0.3,0H9.4v1.1H10c0.1,0,0.2,0,0.3,0c0.1,0,0.2,0,0.2-0.1
			c0.1,0,0.1-0.1,0.2-0.2c0-0.1,0.1-0.2,0.1-0.3s0-0.2-0.1-0.3C10.6,13.6,10.6,13.5,10.5,13.5z"/>
		<path class="st19" d="M16.8,11.1H3.1c-0.6,0-1.1,0.5-1.1,1.1v5.3c0,0.6,0.5,1.1,1.1,1.1h13.8c0.6,0,1.1-0.5,1.1-1.1v-5.3
			C17.9,11.5,17.4,11.1,16.8,11.1z M7.9,16.5H5.1v-3.7h2.8v0.7h-2v0.8h1.8v0.6H5.9v0.9h2V16.5z M11.4,14.4c0,0.1-0.1,0.3-0.2,0.4
			c-0.1,0.1-0.2,0.2-0.4,0.3c-0.2,0.1-0.4,0.1-0.6,0.1H9.4v1.3H8.6v-3.7h1.7c0.2,0,0.4,0,0.6,0.1c0.2,0.1,0.3,0.2,0.4,0.3
			c0.1,0.1,0.2,0.2,0.2,0.4c0,0.1,0.1,0.3,0.1,0.4C11.5,14.1,11.5,14.3,11.4,14.4z M14.8,15.9c-0.1,0.1-0.2,0.3-0.3,0.4
			c-0.1,0.1-0.3,0.2-0.5,0.3c-0.2,0.1-0.4,0.1-0.7,0.1c-0.2,0-0.4,0-0.6-0.1c-0.2,0-0.4-0.1-0.5-0.2c-0.1-0.1-0.3-0.2-0.4-0.4
			c-0.1-0.2-0.1-0.4-0.1-0.6h0.8c0,0.1,0,0.2,0.1,0.3c0,0.1,0.1,0.2,0.2,0.2c0.1,0.1,0.2,0.1,0.3,0.1c0.1,0,0.2,0,0.3,0
			c0.1,0,0.1,0,0.2,0c0.1,0,0.2,0,0.2-0.1c0.1,0,0.1-0.1,0.2-0.1c0-0.1,0.1-0.1,0.1-0.2c0-0.1,0-0.2-0.1-0.2
			c-0.1-0.1-0.1-0.1-0.3-0.2c-0.1,0-0.2-0.1-0.4-0.1c-0.1,0-0.3-0.1-0.4-0.1c-0.1,0-0.3-0.1-0.4-0.1c-0.1-0.1-0.2-0.1-0.4-0.2
			c-0.1-0.1-0.2-0.2-0.3-0.3c-0.1-0.1-0.1-0.3-0.1-0.4c0-0.2,0-0.4,0.1-0.5c0.1-0.1,0.2-0.3,0.3-0.4c0.1-0.1,0.3-0.2,0.4-0.2
			c0.2,0,0.3-0.1,0.5-0.1c0.2,0,0.4,0,0.6,0.1c0.2,0,0.3,0.1,0.5,0.2c0.1,0.1,0.2,0.2,0.3,0.4c0.1,0.1,0.1,0.3,0.1,0.6H14
			c0-0.1,0-0.2-0.1-0.3c0-0.1-0.1-0.1-0.2-0.2c-0.1,0-0.1-0.1-0.2-0.1c-0.1,0-0.2,0-0.3,0c-0.1,0-0.1,0-0.2,0c-0.1,0-0.1,0-0.2,0.1
			c-0.1,0-0.1,0.1-0.1,0.1c0,0.1-0.1,0.1-0.1,0.2c0,0.1,0,0.1,0,0.2c0,0,0.1,0.1,0.2,0.1c0.1,0,0.2,0.1,0.3,0.1l0.6,0.1
			c0.1,0,0.2,0,0.3,0.1c0.1,0,0.2,0.1,0.4,0.2c0.1,0.1,0.2,0.2,0.3,0.3c0.1,0.1,0.1,0.3,0.1,0.5C14.9,15.6,14.9,15.7,14.8,15.9z"/>
	</g>
</g>
<g id="DOC" class="st2">
	<g class="st3">
		<path class="st12" d="M6.6,13.8c-0.1-0.1-0.2-0.2-0.3-0.2c-0.1-0.1-0.3-0.1-0.5-0.1H5.2v2.4h0.7c0.1,0,0.2,0,0.3-0.1
			c0.1,0,0.2-0.1,0.3-0.2c0.1-0.1,0.2-0.2,0.2-0.4c0.1-0.1,0.1-0.3,0.1-0.5c0-0.2,0-0.4-0.1-0.5C6.7,14,6.7,13.9,6.6,13.8z"/>
		<path class="st12" d="M10.8,13.8c-0.1-0.1-0.2-0.2-0.3-0.3c-0.1-0.1-0.3-0.1-0.5-0.1c-0.2,0-0.3,0-0.5,0.1
			c-0.1,0.1-0.2,0.2-0.3,0.3C9.1,13.9,9.1,14,9,14.2C9,14.3,9,14.5,9,14.6C9,14.8,9,15,9,15.1c0,0.1,0.1,0.3,0.2,0.4
			c0.1,0.1,0.2,0.2,0.3,0.3c0.1,0.1,0.3,0.1,0.5,0.1c0.2,0,0.3,0,0.5-0.1c0.1-0.1,0.2-0.2,0.3-0.3c0.1-0.1,0.1-0.3,0.2-0.4
			c0-0.1,0.1-0.3,0.1-0.5c0-0.2,0-0.3-0.1-0.5C10.9,14,10.8,13.9,10.8,13.8z"/>
		<path class="st12" d="M16.8,11.1H3.1c-0.6,0-1.1,0.5-1.1,1.1v5.3c0,0.6,0.5,1.1,1.1,1.1h13.8c0.6,0,1.1-0.5,1.1-1.1v-5.3
			C17.9,11.5,17.4,11.1,16.8,11.1z M7.5,15.4c-0.1,0.2-0.2,0.4-0.3,0.6c-0.1,0.2-0.3,0.3-0.5,0.4c-0.2,0.1-0.5,0.1-0.7,0.1H4.4v-3.7
			H6c0.2,0,0.5,0,0.7,0.1c0.2,0.1,0.4,0.2,0.5,0.3c0.1,0.2,0.3,0.3,0.4,0.6c0.1,0.2,0.1,0.5,0.1,0.8C7.6,14.9,7.6,15.1,7.5,15.4z
			 M11.7,15.4c-0.1,0.2-0.2,0.4-0.4,0.6c-0.2,0.2-0.3,0.3-0.6,0.4c-0.2,0.1-0.5,0.1-0.8,0.1c-0.3,0-0.5-0.1-0.8-0.1
			C9,16.3,8.8,16.2,8.6,16c-0.2-0.2-0.3-0.4-0.4-0.6c-0.1-0.2-0.1-0.5-0.1-0.8c0-0.3,0-0.5,0.1-0.8c0.1-0.2,0.2-0.4,0.4-0.6
			c0.2-0.2,0.3-0.3,0.6-0.4c0.2-0.1,0.5-0.2,0.8-0.2c0.3,0,0.5,0.1,0.8,0.2c0.2,0.1,0.4,0.2,0.6,0.4c0.2,0.2,0.3,0.4,0.4,0.6
			c0.1,0.2,0.1,0.5,0.1,0.8C11.8,14.9,11.8,15.2,11.7,15.4z M15.4,15.7c-0.1,0.2-0.2,0.4-0.3,0.5c-0.1,0.1-0.3,0.2-0.5,0.3
			c-0.2,0.1-0.4,0.1-0.6,0.1c-0.3,0-0.5-0.1-0.8-0.1c-0.2-0.1-0.4-0.2-0.6-0.4c-0.2-0.2-0.3-0.4-0.4-0.6s-0.1-0.5-0.1-0.8
			c0-0.3,0-0.5,0.1-0.8c0.1-0.2,0.2-0.4,0.4-0.6c0.2-0.2,0.3-0.3,0.6-0.4c0.2-0.1,0.5-0.2,0.8-0.2c0.2,0,0.4,0,0.6,0.1
			c0.2,0.1,0.3,0.1,0.5,0.3c0.1,0.1,0.3,0.3,0.4,0.4c0.1,0.2,0.2,0.4,0.2,0.6h-0.8c0-0.1,0-0.2-0.1-0.3c0-0.1-0.1-0.1-0.2-0.2
			c-0.1-0.1-0.2-0.1-0.2-0.1c-0.1,0-0.2-0.1-0.3-0.1c-0.2,0-0.3,0-0.5,0.1c-0.1,0.1-0.2,0.2-0.3,0.3C13.1,13.9,13,14,13,14.2
			c0,0.2-0.1,0.3-0.1,0.5c0,0.2,0,0.3,0.1,0.5c0,0.1,0.1,0.3,0.2,0.4c0.1,0.1,0.2,0.2,0.3,0.3c0.1,0.1,0.3,0.1,0.5,0.1
			c0.2,0,0.4-0.1,0.6-0.2c0.1-0.2,0.2-0.4,0.3-0.6h0.8C15.5,15.3,15.5,15.5,15.4,15.7z"/>
	</g>
</g>
<g id="BIN" class="st2">
	<g class="st3">
		<path class="st20" d="M7.7,14.2c0.1-0.1,0.1-0.2,0.1-0.3c0-0.1,0-0.2,0-0.2c0-0.1-0.1-0.1-0.1-0.1c-0.1,0-0.1-0.1-0.2-0.1
			c-0.1,0-0.1,0-0.2,0H6.6v0.9h0.8C7.5,14.3,7.6,14.2,7.7,14.2z"/>
		<path class="st20" d="M7.4,14.8H6.6v1h0.9c0.1,0,0.2,0,0.2,0c0.1,0,0.1,0,0.2-0.1c0.1,0,0.1-0.1,0.1-0.1c0-0.1,0-0.1,0-0.2
			C8,15.2,8,15,7.9,15C7.8,14.9,7.6,14.8,7.4,14.8z"/>
		<path class="st20" d="M16.8,11.1H3.1c-0.6,0-1.1,0.5-1.1,1.1v5.3c0,0.6,0.5,1.1,1.1,1.1h13.8c0.6,0,1.1-0.5,1.1-1.1v-5.3
			C17.9,11.5,17.4,11.1,16.8,11.1z M8.7,15.9c-0.1,0.1-0.2,0.2-0.3,0.3c-0.1,0.1-0.3,0.1-0.4,0.2c-0.2,0-0.3,0.1-0.5,0.1H5.7v-3.7
			h1.7c0.2,0,0.3,0,0.5,0c0.1,0,0.3,0.1,0.4,0.2c0.1,0.1,0.2,0.2,0.2,0.3c0.1,0.1,0.1,0.3,0.1,0.4c0,0.2,0,0.3-0.1,0.5
			c-0.1,0.1-0.2,0.2-0.4,0.3c0.2,0.1,0.4,0.2,0.5,0.3c0.1,0.2,0.2,0.4,0.2,0.6C8.8,15.6,8.8,15.8,8.7,15.9z M10,16.5H9.2v-3.7H10
			V16.5z M13.8,16.5H13L11.5,14h0v2.5h-0.8v-3.7h0.8l1.5,2.5h0v-2.5h0.8V16.5z"/>
	</g>
</g>
<g id="AVI" class="st2">
	<g class="st3">
		<polygon class="st6" points="7.5,13.7 7,15.1 8,15.1 7.5,13.7 		"/>
		<path class="st6" d="M16.8,11.1H3.1c-0.6,0-1.1,0.5-1.1,1.1v5.3c0,0.6,0.5,1.1,1.1,1.1h13.8c0.6,0,1.1-0.5,1.1-1.1v-5.3
			C17.9,11.5,17.4,11.1,16.8,11.1z M8.5,16.5l-0.3-0.8H6.8l-0.3,0.8H5.7l1.4-3.7h0.8l1.4,3.7H8.5z M11.3,16.5h-0.9l-1.2-3.7H10
			l0.8,2.6h0l0.8-2.6h0.8L11.3,16.5z M13.8,16.5H13v-3.7h0.8V16.5z"/>
	</g>
</g>
<g id="AI" class="st2">
	<g class="st3">
		<polygon class="st21" points="9.4,13.9 8.9,15.2 9.9,15.2 9.4,13.9 		"/>
		<path class="st21" d="M16.8,11.1H3.1c-0.6,0-1.1,0.5-1.1,1.1v5.3c0,0.6,0.5,1.1,1.1,1.1h13.8c0.6,0,1.1-0.5,1.1-1.1v-5.3
			C17.9,11.5,17.4,11.1,16.8,11.1z M10.4,16.7l-0.3-0.8H8.7l-0.3,0.8H7.6L9,12.9h0.8l1.4,3.7H10.4z M12.3,16.7h-0.8v-3.7h0.8V16.7z"
			/>
	</g>
</g>
<g id="_x37_z">
	<path class="st4" d="M16.8,11.1H3c-0.6,0-1.1,0.5-1.1,1.1v5.3c0,0.6,0.5,1.1,1.1,1.1h13.8c0.6,0,1.1-0.5,1.1-1.1v-5.3
		C17.9,11.5,17.4,11.1,16.8,11.1z M10,13.6c-0.2,0.2-0.4,0.4-0.5,0.6c-0.2,0.3-0.3,0.5-0.4,0.8c-0.1,0.3-0.2,0.6-0.2,0.9
		c-0.1,0.3-0.1,0.6-0.1,0.8H7.9c0-0.6,0.2-1.1,0.4-1.6c0.2-0.5,0.5-1,0.9-1.4H7.4v-0.7H10V13.6z M10.4,16.7v-0.6l1.5-1.6h-1.4v-0.6
		h2.4v0.6l-1.5,1.6H13c0,0,0,0.6,0,0.6H10.4z"/>
</g>
</svg>
