<?xml version="1.0" encoding="utf-8"?>
<!-- Generator: Adobe Illustrator 26.5.0, SVG Export Plug-In . SVG Version: 6.00 Build 0)  -->
<svg version="1.1" xmlns="http://www.w3.org/2000/svg" xmlns:xlink="http://www.w3.org/1999/xlink" x="0px" y="0px"
	 viewBox="0 0 24 24" style="enable-background:new 0 0 24 24;" xml:space="preserve">
<style type="text/css">
	.st0{fill:none;stroke:#121212;stroke-width:1.5;stroke-linecap:round;stroke-linejoin:round;}
	.st1{fill:none;stroke:#121212;stroke-width:1.5;stroke-linejoin:round;}
	.st2{display:none;}
	.st3{display:inline;fill-rule:evenodd;clip-rule:evenodd;fill:#515151;}
	.st4{display:inline;fill-rule:evenodd;clip-rule:evenodd;fill:none;}
	.st5{display:inline;fill:#FFFFFF;}
	.st6{font-family:'TTNorms-Bold';}
	.st7{font-size:5.35px;}
	.st8{display:inline;fill-rule:evenodd;clip-rule:evenodd;fill:#424242;}
	.st9{display:inline;fill-rule:evenodd;clip-rule:evenodd;fill:#707DBE;}
	.st10{display:inline;}
	.st11{fill-rule:evenodd;clip-rule:evenodd;fill:#C23E1C;}
	.st12{fill-rule:evenodd;clip-rule:evenodd;fill:#F36F4D;}
	.st13{fill-rule:evenodd;clip-rule:evenodd;fill:#F69177;}
	.st14{display:inline;fill-rule:evenodd;clip-rule:evenodd;fill:#F9B2A0;}
	.st15{fill-rule:evenodd;clip-rule:evenodd;fill:#848484;}
	.st16{fill-rule:evenodd;clip-rule:evenodd;fill:#9B9B9B;}
	.st17{display:inline;fill-rule:evenodd;clip-rule:evenodd;fill:#23935D;}
	.st18{fill-rule:evenodd;clip-rule:evenodd;fill:#3F4C8E;}
	.st19{fill-rule:evenodd;clip-rule:evenodd;fill:#F04D23;}
	.st20{fill-rule:evenodd;clip-rule:evenodd;fill:#F78100;}
	.st21{display:inline;fill-rule:evenodd;clip-rule:evenodd;fill:#3F1C5A;}
	.st22{fill-rule:evenodd;clip-rule:evenodd;fill:#532475;}
	.st23{fill-rule:evenodd;clip-rule:evenodd;fill:#662D91;}
	.st24{display:inline;fill-rule:evenodd;clip-rule:evenodd;fill:#8355A6;}
	.st25{fill-rule:evenodd;clip-rule:evenodd;fill:#4E5EAF;}
	.st26{display:inline;fill-rule:evenodd;clip-rule:evenodd;fill:#CB8F34;}
	.st27{fill-rule:evenodd;clip-rule:evenodd;fill:#FBB040;}
	.st28{fill-rule:evenodd;clip-rule:evenodd;fill:#FCBF64;}
	.st29{fill-rule:evenodd;clip-rule:evenodd;fill:#6C4C1C;}
	.st30{display:inline;fill-rule:evenodd;clip-rule:evenodd;fill:#9C6D28;}
</style>
<g id="File_icon_00000080901612109651746130000002932083395363635390_">
	<g id="File_icon">
		<polyline class="st0" points="13,2 13,9 20,9 		"/>
		<path class="st1" d="M4,19.9V20c0,1.1,0.9,2,2,2h12c1.1,0,2-0.9,2-2V9l-7-7H6C4.9,2,4,2.9,4,4v5.8"/>
	</g>
</g>
<g id="blank" class="st2">
	<path class="st3" d="M16.9,11.1H2.9c-0.6,0-1,0.5-1,1.1v5.3c0,0.6,0.5,1.1,1,1.1h13.9c0.6,0,1-0.5,1-1.1v-5.3
		C17.9,11.6,17.4,11.1,16.9,11.1z"/>
	<rect x="1.9" y="13" class="st4" width="16" height="4"/>
	<text transform="matrix(1 0 0 1 7.106 16.7675)" class="st5 st6 st7">AI</text>
</g>
<g id="text" class="st2">
	<rect x="-23.3" y="13" class="st4" width="16" height="4"/>
	<text transform="matrix(1 0 0 1 -18.1223 16.7675)" class="st5 st6 st7">AI</text>
</g>
<g id="TXT" class="st2">
	<path class="st8" d="M16.9,11.1H2.9c-0.6,0-1,0.5-1,1.1v5.3c0,0.6,0.5,1.1,1,1.1h13.9c0.6,0,1-0.5,1-1.1v-5.3
		C17.9,11.6,17.4,11.1,16.9,11.1z M8,13.7H6.9v3H6.1v-3H5.1V13H8V13.7z M10.8,16.8l-0.9-1.4L9,16.8H8.1l1.3-2L8.2,13h0.9l0.8,1.2
		l0.8-1.2h0.9l-1.2,1.8l1.3,2H10.8z M14.7,13.7h-1.1v3h-0.8v-3h-1.1V13h2.9V13.7z"/>
</g>
<g id="HTM" class="st2">
	<path class="st9" d="M16.9,11.1H2.9c-0.6,0-1,0.5-1,1.1v5.3c0,0.6,0.5,1.1,1,1.1h13.9c0.6,0,1-0.5,1-1.1v-5.3
		C17.9,11.6,17.4,11.1,16.9,11.1z M7.5,16.8H6.7v-1.5H5.1v1.5H4.3V13h0.8v1.5h1.6V13h0.8V16.8z M11,13.7H9.9v3H9.1v-3H8V13H11V13.7z
		 M15.5,16.8h-0.8v-2.5l-1.2,1.5l-1.2-1.5v2.5h-0.8V13h0.7l1.3,1.6l1.3-1.6h0.7V16.8z"/>
</g>
<g id="MPG" class="st2">
	<g class="st10">
		<path class="st11" d="M16.9,11.1H2.9c-0.6,0-1,0.5-1,1.1v5.3c0,0.6,0.5,1.1,1,1.1h13.9c0.6,0,1-0.5,1-1.1v-5.3
			C17.9,11.6,17.4,11.1,16.9,11.1z M8,16.8H7.2v-2.5L6,15.8l-1.2-1.5v2.5H4V13h0.7L6,14.7L7.3,13H8V16.8z M11.4,15.2
			c-0.3,0.2-0.6,0.4-1,0.4H9.7v1.2H8.9V13h1.6c0.4,0,0.7,0.1,1,0.4c0.3,0.2,0.4,0.5,0.4,0.9S11.7,14.9,11.4,15.2z M15.9,16.1
			C15.9,16.1,15.8,16.2,15.9,16.1c-0.1,0.1-0.2,0.2-0.3,0.3c-0.1,0.1-0.2,0.2-0.3,0.2c-0.1,0.1-0.3,0.1-0.5,0.2
			c-0.2,0.1-0.4,0.1-0.6,0.1c-0.6,0-1.1-0.2-1.4-0.6c-0.4-0.4-0.6-0.8-0.6-1.4c0-0.5,0.2-1,0.6-1.4c0.4-0.4,0.9-0.6,1.4-0.6
			c0.2,0,0.4,0,0.6,0.1c0.2,0.1,0.3,0.1,0.4,0.2s0.2,0.1,0.3,0.2c0.1,0.1,0.2,0.1,0.2,0.2l0.1,0.1l-0.5,0.5c0,0,0,0,0-0.1
			c0,0-0.1-0.1-0.1-0.1c-0.1-0.1-0.1-0.1-0.2-0.2s-0.2-0.1-0.3-0.1s-0.2-0.1-0.4-0.1c-0.3,0-0.6,0.1-0.9,0.4
			c-0.2,0.2-0.4,0.5-0.4,0.9s0.1,0.6,0.4,0.9c0.2,0.2,0.5,0.4,0.9,0.4c0.2,0,0.3,0,0.5-0.1c0.1,0,0.2-0.1,0.3-0.2l0.1-0.1v-0.5h-0.7
			v-0.6h1.5V16.1z"/>
		<path class="st11" d="M10.4,13.7H9.7v1.1h0.7c0.2,0,0.3-0.1,0.4-0.2s0.2-0.2,0.2-0.4c0-0.1-0.1-0.3-0.2-0.4S10.6,13.7,10.4,13.7z"
			/>
	</g>
</g>
<g id="MP4" class="st2">
	<g class="st10">
		<path class="st12" d="M11,13.7h-0.7v1.1H11c0.2,0,0.3-0.1,0.4-0.2s0.2-0.2,0.2-0.4c0-0.1-0.1-0.3-0.2-0.4S11.1,13.7,11,13.7z"/>
		<polygon class="st12" points="14.4,15.4 14.4,14 13.4,15.4 		"/>
		<path class="st12" d="M16.9,11.1H2.9c-0.6,0-1,0.5-1,1.1v5.3c0,0.6,0.5,1.1,1,1.1h13.9c0.6,0,1-0.5,1-1.1v-5.3
			C17.9,11.6,17.4,11.1,16.9,11.1z M8.5,16.8H7.7v-2.5l-1.2,1.5l-1.2-1.5v2.5H4.5V13h0.7l1.3,1.6L7.8,13h0.7V16.8z M12,15.2
			c-0.3,0.2-0.6,0.4-1,0.4h-0.8v1.2H9.4V13H11c0.4,0,0.7,0.1,1,0.4c0.3,0.2,0.4,0.5,0.4,0.9S12.2,14.9,12,15.2z M15.6,16.1h-0.4v0.7
			h-0.8v-0.7h-1.8v-0.8l1.6-2.3h0.9v2.4h0.4V16.1z"/>
	</g>
</g>
<g id="MOV" class="st2">
	<g class="st10">
		<path class="st13" d="M16.9,11.1H2.9c-0.6,0-1,0.5-1,1.1v5.3c0,0.6,0.5,1.1,1,1.1h13.9c0.6,0,1-0.5,1-1.1v-5.3
			C17.9,11.6,17.4,11.1,16.9,11.1z M7.9,16.8H7.1v-2.5l-1.2,1.5l-1.2-1.5v2.5H3.9V13h0.7l1.3,1.6L7.2,13h0.7V16.8z M12,16.3
			c-0.4,0.4-0.9,0.6-1.4,0.6s-1.1-0.2-1.4-0.6s-0.6-0.8-0.6-1.4c0-0.5,0.2-1,0.6-1.4c0.4-0.4,0.9-0.6,1.4-0.6s1.1,0.2,1.4,0.6
			c0.4,0.4,0.6,0.8,0.6,1.4C12.6,15.4,12.4,15.9,12,16.3z M14.9,16.8h-0.9L12.7,13h0.9l1,2.8l1-2.8h0.9L14.9,16.8z"/>
		<path class="st13" d="M10.6,13.7c-0.3,0-0.6,0.1-0.9,0.4c-0.2,0.2-0.3,0.5-0.3,0.9c0,0.3,0.1,0.6,0.3,0.9c0.2,0.2,0.5,0.4,0.9,0.4
			s0.6-0.1,0.9-0.4c0.2-0.2,0.3-0.5,0.3-0.9c0-0.3-0.1-0.6-0.3-0.9C11.2,13.8,10.9,13.7,10.6,13.7z"/>
	</g>
</g>
<g id="FLV" class="st2">
	<path class="st14" d="M16.9,11.1H2.9c-0.6,0-1,0.5-1,1.1v5.3c0,0.6,0.5,1.1,1,1.1h13.9c0.6,0,1-0.5,1-1.1v-5.3
		C17.9,11.6,17.4,11.1,16.9,11.1z M8.2,13.7H6.3v0.8h1.5v0.7H6.3v1.5H5.4V13h2.8V13.7z M11.4,16.8H8.8V13h0.8v3h1.7V16.8z
		 M13.3,16.8h-0.9L11.1,13h0.9l1,2.8l1-2.8h0.9L13.3,16.8z"/>
</g>
<g id="WAV">
	<g>
		<path class="st15" d="M16.9,11.1H2.9c-0.6,0-1,0.5-1,1.1v5.3c0,0.6,0.5,1.1,1,1.1h13.9c0.6,0,1-0.5,1-1.1v-5.3
			C17.9,11.6,17.4,11.1,16.9,11.1z M7.3,16.8l-0.8-2.5l-0.8,2.5H4.9L3.7,13h0.9l0.8,2.6L6.1,13h0.7l0.8,2.6L8.4,13h0.9L8,16.8H7.3z
			 M12,16.8l-0.3-0.9h-1.4l-0.3,0.9H9l1.5-3.7h0.9l1.5,3.7H12z M14.7,16.8h-0.9L12.5,13h0.9l1,2.8l1-2.8h0.9L14.7,16.8z"/>
		<polygon class="st15" points="10.5,15.2 11.4,15.2 10.9,14 		"/>
	</g>
</g>
<g id="MP3" class="st2">
	<g class="st10">
		<path class="st16" d="M11.1,13.7h-0.7v1.1h0.7c0.2,0,0.3-0.1,0.4-0.2s0.2-0.2,0.2-0.4c0-0.1-0.1-0.3-0.2-0.4S11.2,13.7,11.1,13.7z
			"/>
		<path class="st16" d="M16.9,11.1H2.9c-0.6,0-1,0.5-1,1.1v5.3c0,0.6,0.5,1.1,1,1.1h13.9c0.6,0,1-0.5,1-1.1v-5.3
			C17.9,11.6,17.4,11.1,16.9,11.1z M8.6,16.8H7.8v-2.5l-1.2,1.5l-1.2-1.5v2.5H4.6V13h0.7l1.3,1.6L7.9,13h0.7V16.8z M12,15.2
			c-0.3,0.2-0.6,0.4-1,0.4h-0.8v1.2H9.5V13h1.6c0.4,0,0.7,0.1,1,0.4c0.3,0.2,0.4,0.5,0.4,0.9S12.3,14.9,12,15.2z M15.1,16.5
			c-0.3,0.2-0.6,0.3-1,0.3c-0.2,0-0.3,0-0.5-0.1c-0.2,0-0.3-0.1-0.4-0.1s-0.2-0.1-0.3-0.2s-0.1-0.1-0.2-0.2l-0.1-0.1l0.5-0.5
			c0,0,0,0,0,0c0,0,0.1,0,0.1,0.1c0.1,0,0.1,0.1,0.2,0.1c0.1,0,0.1,0.1,0.2,0.1c0.1,0,0.2,0,0.3,0c0.2,0,0.4,0,0.5-0.1
			c0.1-0.1,0.2-0.2,0.2-0.3c0-0.1-0.1-0.3-0.2-0.3c-0.1-0.1-0.3-0.1-0.5-0.1h-0.4v-0.7H14c0.2,0,0.3,0,0.4-0.1
			c0.1-0.1,0.1-0.2,0.1-0.3c0-0.1,0-0.2-0.1-0.3s-0.2-0.1-0.4-0.1c-0.1,0-0.3,0-0.4,0.1s-0.2,0.1-0.3,0.2L13.3,14l-0.5-0.5
			c0,0,0,0,0-0.1s0.1-0.1,0.1-0.1c0.1-0.1,0.2-0.1,0.3-0.2s0.2-0.1,0.4-0.1c0.1,0,0.3-0.1,0.5-0.1c0.4,0,0.7,0.1,0.9,0.3
			s0.3,0.4,0.3,0.7c0,0.1,0,0.2-0.1,0.3c0,0.1-0.1,0.2-0.1,0.2c-0.1,0.1-0.1,0.1-0.2,0.1c-0.1,0-0.1,0.1-0.1,0.1l-0.1,0
			c0,0,0,0,0.1,0c0,0,0.1,0,0.2,0.1c0.1,0,0.1,0.1,0.2,0.2c0.1,0.1,0.1,0.2,0.2,0.3c0,0.1,0.1,0.2,0.1,0.4
			C15.4,16,15.3,16.3,15.1,16.5z"/>
	</g>
</g>
<g id="XLS" class="st2">
	<path class="st17" d="M16.9,11.1H2.9c-0.6,0-1,0.5-1,1.1v5.3c0,0.6,0.5,1.1,1,1.1h13.9c0.6,0,1-0.5,1-1.1v-5.3
		C17.9,11.6,17.4,11.1,16.9,11.1z M7.7,16.8l-0.9-1.4l-0.9,1.4H5l1.3-2L5.1,13H6l0.8,1.2L7.6,13h0.9l-1.2,1.8l1.3,2H7.7z M11.6,16.8
		H9.1V13h0.8v3h1.7V16.8z M14.3,16.5c-0.3,0.2-0.6,0.3-1,0.3c-0.2,0-0.3,0-0.5-0.1c-0.2,0-0.3-0.1-0.4-0.2c-0.1-0.1-0.2-0.1-0.3-0.2
		c-0.1-0.1-0.1-0.1-0.2-0.2l-0.1-0.1l0.5-0.5c0,0,0.1,0.1,0.1,0.1c0,0,0.1,0.1,0.3,0.2c0.2,0.1,0.3,0.1,0.5,0.1c0.2,0,0.3,0,0.5-0.1
		c0.1-0.1,0.2-0.2,0.2-0.3c0-0.1-0.1-0.2-0.2-0.3c-0.1-0.1-0.3-0.1-0.5-0.2c-0.2-0.1-0.4-0.1-0.5-0.2c-0.2-0.1-0.3-0.2-0.5-0.3
		s-0.2-0.4-0.2-0.6c0-0.3,0.1-0.6,0.4-0.8c0.2-0.2,0.6-0.3,0.9-0.3c0.2,0,0.3,0,0.4,0.1c0.1,0,0.3,0.1,0.4,0.1
		c0.1,0,0.2,0.1,0.2,0.1c0.1,0,0.1,0.1,0.1,0.1l0,0.1L14,14c0,0,0-0.1-0.1-0.1c0,0-0.1-0.1-0.2-0.1s-0.2-0.1-0.4-0.1
		c-0.2,0-0.3,0-0.4,0.1s-0.1,0.2-0.1,0.3c0,0.1,0.1,0.2,0.2,0.3c0.1,0.1,0.3,0.1,0.5,0.2c0.2,0.1,0.4,0.1,0.5,0.2
		c0.2,0.1,0.3,0.2,0.5,0.3s0.2,0.4,0.2,0.6C14.6,16,14.5,16.3,14.3,16.5z"/>
</g>
<g id="DOC" class="st2">
	<g class="st10">
		<path class="st18" d="M5.5,13.7H4.9V16h0.6c0.3,0,0.6-0.1,0.8-0.3s0.3-0.5,0.3-0.8c0-0.3-0.1-0.6-0.3-0.8S5.8,13.7,5.5,13.7z"/>
		<path class="st18" d="M9.9,13.7c-0.3,0-0.6,0.1-0.9,0.4c-0.2,0.2-0.3,0.5-0.3,0.9c0,0.3,0.1,0.6,0.3,0.9c0.2,0.2,0.5,0.4,0.9,0.4
			s0.6-0.1,0.9-0.4c0.2-0.2,0.3-0.5,0.3-0.9c0-0.3-0.1-0.6-0.3-0.9C10.5,13.8,10.2,13.7,9.9,13.7z"/>
		<path class="st18" d="M16.9,11.1H2.9c-0.6,0-1,0.5-1,1.1v5.3c0,0.6,0.5,1.1,1,1.1h13.9c0.6,0,1-0.5,1-1.1v-5.3
			C17.9,11.6,17.4,11.1,16.9,11.1z M6.9,16.2c-0.4,0.4-0.8,0.5-1.4,0.5H4.1V13h1.4c0.5,0,1,0.2,1.4,0.5c0.4,0.4,0.6,0.8,0.6,1.3
			S7.2,15.9,6.9,16.2z M11.4,16.3c-0.4,0.4-0.9,0.6-1.4,0.6s-1.1-0.2-1.4-0.6s-0.6-0.8-0.6-1.4c0-0.5,0.2-1,0.6-1.4
			c0.4-0.4,0.9-0.6,1.4-0.6s1.1,0.2,1.4,0.6c0.4,0.4,0.6,0.8,0.6,1.4C11.9,15.4,11.7,15.9,11.4,16.3z M15.9,16.2
			c0,0-0.1,0.1-0.2,0.2c-0.1,0.1-0.2,0.2-0.3,0.2s-0.3,0.1-0.4,0.2c-0.2,0.1-0.4,0.1-0.6,0.1c-0.6,0-1.1-0.2-1.4-0.6
			c-0.4-0.4-0.6-0.8-0.6-1.4c0-0.5,0.2-1,0.6-1.4c0.4-0.4,0.9-0.6,1.4-0.6c0.2,0,0.4,0,0.6,0.1c0.2,0.1,0.3,0.1,0.4,0.2
			s0.2,0.1,0.3,0.2c0.1,0.1,0.2,0.1,0.2,0.2l0.1,0.1l-0.5,0.5c0,0,0,0,0-0.1c0,0-0.1-0.1-0.1-0.1c-0.1-0.1-0.1-0.1-0.2-0.2
			s-0.2-0.1-0.3-0.1s-0.2-0.1-0.4-0.1c-0.3,0-0.6,0.1-0.9,0.4c-0.2,0.2-0.4,0.5-0.4,0.9s0.1,0.6,0.4,0.9c0.2,0.2,0.5,0.4,0.9,0.4
			c0.1,0,0.3,0,0.4-0.1c0.1,0,0.2-0.1,0.3-0.1s0.2-0.1,0.2-0.2s0.1-0.1,0.1-0.1l0-0.1L15.9,16.2C16,16.1,16,16.1,15.9,16.2z"/>
	</g>
</g>
<g id="PDF" class="st2">
	<g class="st10">
		<path class="st19" d="M6.4,13.7H5.7v1.1h0.7c0.2,0,0.3-0.1,0.4-0.2S7,14.4,7,14.3c0-0.1-0.1-0.3-0.2-0.4S6.6,13.7,6.4,13.7z"/>
		<path class="st19" d="M9.8,13.7H9.2V16h0.6c0.3,0,0.6-0.1,0.8-0.3s0.3-0.5,0.3-0.8c0-0.3-0.1-0.6-0.3-0.8S10.2,13.7,9.8,13.7z"/>
		<path class="st19" d="M16.9,11.1H2.9c-0.6,0-1,0.5-1,1.1v5.3c0,0.6,0.5,1.1,1,1.1h13.9c0.6,0,1-0.5,1-1.1v-5.3
			C17.9,11.6,17.4,11.1,16.9,11.1z M7.4,15.2c-0.3,0.2-0.6,0.4-1,0.4H5.7v1.2H4.9V13h1.6c0.4,0,0.7,0.1,1,0.4
			c0.3,0.2,0.4,0.5,0.4,0.9S7.7,14.9,7.4,15.2z M11.2,16.2c-0.4,0.4-0.8,0.5-1.4,0.5H8.4V13h1.4c0.5,0,1,0.2,1.4,0.5
			c0.4,0.4,0.6,0.8,0.6,1.3S11.6,15.9,11.2,16.2z M15.2,13.7h-1.9v0.8h1.5v0.7h-1.5v1.5h-0.8V13h2.8V13.7z"/>
	</g>
</g>
<g id="PPT" class="st2">
	<g class="st10">
		<path class="st20" d="M6.8,13.7H6v1.1h0.7c0.2,0,0.3-0.1,0.4-0.2s0.2-0.2,0.2-0.4c0-0.1-0.1-0.3-0.2-0.4S7,13.7,6.8,13.7z"/>
		<path class="st20" d="M16.9,11.1H2.9c-0.6,0-1,0.5-1,1.1v5.3c0,0.6,0.5,1.1,1,1.1h13.9c0.6,0,1-0.5,1-1.1v-5.3
			C17.9,11.6,17.4,11.1,16.9,11.1z M7.8,15.2c-0.3,0.2-0.6,0.4-1,0.4H6v1.2H5.2V13h1.6c0.4,0,0.7,0.1,1,0.4c0.3,0.2,0.4,0.5,0.4,0.9
			S8,14.9,7.8,15.2z M11.3,15.2c-0.3,0.2-0.6,0.4-1,0.4H9.6v1.2H8.8V13h1.6c0.4,0,0.7,0.1,1,0.4c0.3,0.2,0.4,0.5,0.4,0.9
			S11.6,14.9,11.3,15.2z M14.9,13.7h-1.1v3h-0.8v-3H12V13h2.9V13.7z"/>
		<path class="st20" d="M10.4,13.7H9.6v1.1h0.7c0.2,0,0.3-0.1,0.4-0.2s0.2-0.2,0.2-0.4c0-0.1-0.1-0.3-0.2-0.4S10.5,13.7,10.4,13.7z"
			/>
	</g>
</g>
<g id="TIF" class="st2">
	<path class="st21" d="M16.9,11.1H2.9c-0.6,0-1,0.5-1,1.1v5.3c0,0.6,0.5,1.1,1,1.1h13.9c0.6,0,1-0.5,1-1.1v-5.3
		C17.9,11.6,17.4,11.1,16.9,11.1z M8.8,13.7H7.8v3H7v-3H5.9V13h2.9V13.7z M10.2,16.8H9.4V13h0.8V16.8z M13.8,13.7h-1.9v0.8h1.5v0.7
		h-1.5v1.5H11V13h2.8V13.7z"/>
</g>
<g id="PNG" class="st2">
	<g class="st10">
		<path class="st22" d="M5.9,13.7H5.1v1.1h0.7c0.2,0,0.3-0.1,0.4-0.2s0.2-0.2,0.2-0.4c0-0.1-0.1-0.3-0.2-0.4S6,13.7,5.9,13.7z"/>
		<path class="st22" d="M16.9,11.1H2.9c-0.6,0-1,0.5-1,1.1v5.3c0,0.6,0.5,1.1,1,1.1h13.9c0.6,0,1-0.5,1-1.1v-5.3
			C17.9,11.6,17.4,11.1,16.9,11.1z M6.9,15.2c-0.3,0.2-0.6,0.4-1,0.4H5.1v1.2H4.3V13h1.6c0.4,0,0.7,0.1,1,0.4
			c0.3,0.2,0.4,0.5,0.4,0.9S7.1,14.9,6.9,15.2z M11.2,16.8h-0.7l-1.8-2.4v2.4H7.9V13h0.7l1.8,2.4V13h0.8V16.8z M15.6,16.1
			C15.5,16.1,15.5,16.2,15.6,16.1c-0.1,0.1-0.2,0.2-0.3,0.3c-0.1,0.1-0.2,0.2-0.3,0.2c-0.1,0.1-0.3,0.1-0.5,0.2
			c-0.2,0.1-0.4,0.1-0.6,0.1c-0.6,0-1.1-0.2-1.4-0.6s-0.6-0.8-0.6-1.4c0-0.5,0.2-1,0.6-1.4c0.4-0.4,0.9-0.6,1.4-0.6
			c0.2,0,0.4,0,0.6,0.1c0.2,0.1,0.3,0.1,0.4,0.2s0.2,0.1,0.3,0.2c0.1,0.1,0.2,0.1,0.2,0.2l0.1,0.1L15,14.2c0,0,0,0,0-0.1
			c0,0-0.1-0.1-0.1-0.1c-0.1-0.1-0.1-0.1-0.2-0.2s-0.2-0.1-0.3-0.1s-0.2-0.1-0.4-0.1c-0.3,0-0.6,0.1-0.9,0.4
			c-0.2,0.2-0.4,0.5-0.4,0.9s0.1,0.6,0.4,0.9c0.2,0.2,0.5,0.4,0.9,0.4c0.2,0,0.3,0,0.5-0.1c0.1,0,0.2-0.1,0.3-0.2l0.1-0.1v-0.5h-0.7
			v-0.6h1.5V16.1z"/>
	</g>
</g>
<g id="JPG" class="st2">
	<g class="st10">
		<path class="st23" d="M9.3,13.7H8.6v1.1h0.7c0.2,0,0.3-0.1,0.4-0.2s0.2-0.2,0.2-0.4c0-0.1-0.1-0.3-0.2-0.4S9.5,13.7,9.3,13.7z"/>
		<path class="st23" d="M16.9,11.1H2.9c-0.6,0-1,0.5-1,1.1v5.3c0,0.6,0.5,1.1,1,1.1h13.9c0.6,0,1-0.5,1-1.1v-5.3
			C17.9,11.6,17.4,11.1,16.9,11.1z M6.9,15.6c0,0.4-0.1,0.7-0.4,0.9c-0.2,0.2-0.6,0.4-0.9,0.4c-0.2,0-0.4,0-0.5-0.1
			c-0.2-0.1-0.3-0.2-0.3-0.2l-0.1-0.1l0.5-0.5c0,0,0,0,0.1,0.1c0,0,0.1,0.1,0.2,0.1c0.1,0,0.2,0.1,0.2,0.1c0.2,0,0.3,0,0.4-0.1
			c0.1-0.1,0.1-0.2,0.1-0.4V13h0.8V15.6z M10.3,15.2c-0.3,0.2-0.6,0.4-1,0.4H8.6v1.2H7.8V13h1.6c0.4,0,0.7,0.1,1,0.4
			c0.3,0.2,0.4,0.5,0.4,0.9S10.6,14.9,10.3,15.2z M14.8,16.1C14.8,16.1,14.7,16.2,14.8,16.1c-0.1,0.1-0.2,0.2-0.3,0.3
			c-0.1,0.1-0.2,0.2-0.3,0.2c-0.1,0.1-0.3,0.1-0.5,0.2c-0.2,0.1-0.4,0.1-0.6,0.1c-0.6,0-1.1-0.2-1.4-0.6s-0.6-0.8-0.6-1.4
			c0-0.5,0.2-1,0.6-1.4c0.4-0.4,0.9-0.6,1.4-0.6c0.2,0,0.4,0,0.6,0.1c0.2,0.1,0.3,0.1,0.4,0.2c0.1,0.1,0.2,0.1,0.3,0.2
			c0.1,0.1,0.2,0.1,0.2,0.2l0.1,0.1l-0.5,0.5c0,0,0,0,0-0.1c0,0-0.1-0.1-0.1-0.1c-0.1-0.1-0.1-0.1-0.2-0.2c-0.1,0-0.2-0.1-0.3-0.1
			c-0.1,0-0.2-0.1-0.4-0.1c-0.3,0-0.6,0.1-0.9,0.4c-0.2,0.2-0.4,0.5-0.4,0.9s0.1,0.6,0.4,0.9s0.5,0.4,0.9,0.4c0.2,0,0.3,0,0.5-0.1
			c0.1,0,0.2-0.1,0.3-0.2l0.1-0.1v-0.5h-0.7v-0.6h1.5V16.1z"/>
	</g>
</g>
<g id="GIF" class="st2">
	<path class="st24" d="M16.9,11.1H2.9c-0.6,0-1,0.5-1,1.1v5.3c0,0.6,0.5,1.1,1,1.1h13.9c0.6,0,1-0.5,1-1.1v-5.3
		C17.9,11.6,17.4,11.1,16.9,11.1z M9.1,16.1C9.1,16.1,9.1,16.2,9.1,16.1C9,16.2,9,16.3,8.9,16.4c-0.1,0.1-0.2,0.2-0.3,0.2
		s-0.3,0.1-0.5,0.2c-0.2,0.1-0.4,0.1-0.6,0.1c-0.6,0-1.1-0.2-1.4-0.6s-0.6-0.8-0.6-1.4c0-0.5,0.2-1,0.6-1.4c0.4-0.4,0.9-0.6,1.4-0.6
		c0.2,0,0.4,0,0.6,0.1c0.2,0.1,0.3,0.1,0.4,0.2c0.1,0.1,0.2,0.1,0.3,0.2C8.9,13.5,9,13.6,9,13.6l0.1,0.1l-0.5,0.5c0,0,0,0,0-0.1
		c0,0-0.1-0.1-0.1-0.1c-0.1-0.1-0.1-0.1-0.2-0.2S8,13.8,7.9,13.7s-0.2-0.1-0.4-0.1c-0.3,0-0.6,0.1-0.9,0.4c-0.2,0.2-0.4,0.5-0.4,0.9
		s0.1,0.6,0.4,0.9s0.5,0.4,0.9,0.4c0.2,0,0.3,0,0.5-0.1c0.1,0,0.2-0.1,0.3-0.2l0.1-0.1v-0.5H7.7v-0.6h1.5V16.1z M10.7,16.8H9.9V13
		h0.8V16.8z M14.4,13.7h-1.9v0.8h1.5v0.7h-1.5v1.5h-0.8V13h2.8V13.7z"/>
</g>
<g id="PSD" class="st2">
	<g class="st10">
		<path class="st25" d="M6.6,13.7H5.8v1.1h0.7c0.2,0,0.3-0.1,0.4-0.2s0.2-0.2,0.2-0.4c0-0.1-0.1-0.3-0.2-0.4S6.7,13.7,6.6,13.7z"/>
		<path class="st25" d="M13.1,13.7h-0.6V16h0.6c0.3,0,0.6-0.1,0.8-0.3c0.2-0.2,0.3-0.5,0.3-0.8c0-0.3-0.1-0.6-0.3-0.8
			C13.7,13.9,13.4,13.7,13.1,13.7z"/>
		<path class="st25" d="M16.9,11.1H2.9c-0.6,0-1,0.5-1,1.1v5.3c0,0.6,0.5,1.1,1,1.1h13.9c0.6,0,1-0.5,1-1.1v-5.3
			C17.9,11.6,17.4,11.1,16.9,11.1z M7.5,15.2c-0.3,0.2-0.6,0.4-1,0.4H5.8v1.2H5V13h1.6c0.4,0,0.7,0.1,1,0.4c0.3,0.2,0.4,0.5,0.4,0.9
			S7.8,14.9,7.5,15.2z M10.7,16.5c-0.3,0.2-0.6,0.3-1,0.3c-0.2,0-0.3,0-0.5-0.1c-0.2,0-0.3-0.1-0.4-0.2c-0.1-0.1-0.2-0.1-0.3-0.2
			c-0.1-0.1-0.1-0.1-0.2-0.2l-0.1-0.1l0.5-0.5c0,0,0.1,0.1,0.1,0.1c0,0,0.1,0.1,0.3,0.2c0.2,0.1,0.3,0.1,0.5,0.1
			c0.2,0,0.3,0,0.5-0.1c0.1-0.1,0.2-0.2,0.2-0.3c0-0.1-0.1-0.2-0.2-0.3c-0.1-0.1-0.3-0.1-0.5-0.2C9.4,15.1,9.2,15.1,9,15
			c-0.2-0.1-0.3-0.2-0.5-0.3S8.3,14.3,8.3,14c0-0.3,0.1-0.6,0.4-0.8c0.2-0.2,0.6-0.3,0.9-0.3c0.2,0,0.3,0,0.4,0.1
			c0.1,0,0.3,0.1,0.4,0.1s0.2,0.1,0.2,0.1c0.1,0,0.1,0.1,0.1,0.1l0,0.1L10.4,14c0,0,0-0.1-0.1-0.1c0,0-0.1-0.1-0.2-0.1
			c-0.1-0.1-0.2-0.1-0.4-0.1c-0.2,0-0.3,0-0.4,0.1c-0.1,0.1-0.1,0.2-0.1,0.3c0,0.1,0.1,0.2,0.2,0.3c0.1,0.1,0.3,0.1,0.5,0.2
			c0.2,0.1,0.4,0.1,0.5,0.2c0.2,0.1,0.3,0.2,0.5,0.3s0.2,0.4,0.2,0.6C11,16,10.9,16.3,10.7,16.5z M14.5,16.2
			c-0.4,0.4-0.8,0.5-1.4,0.5h-1.4V13h1.4c0.5,0,1,0.2,1.4,0.5c0.4,0.4,0.6,0.8,0.6,1.3S14.8,15.9,14.5,16.2z"/>
	</g>
</g>
<g id="SVG" class="st2">
	<path class="st26" d="M16.9,11.1H2.9c-0.6,0-1,0.5-1,1.1v5.3c0,0.6,0.5,1.1,1,1.1h13.9c0.6,0,1-0.5,1-1.1v-5.3
		C17.9,11.6,17.4,11.1,16.9,11.1z M7,16.5c-0.3,0.2-0.6,0.3-1,0.3c-0.2,0-0.3,0-0.5-0.1c-0.2,0-0.3-0.1-0.4-0.2
		c-0.1-0.1-0.2-0.1-0.3-0.2c-0.1-0.1-0.1-0.1-0.2-0.2l-0.1-0.1l0.5-0.5c0,0,0.1,0.1,0.1,0.1c0,0,0.1,0.1,0.3,0.2
		c0.2,0.1,0.3,0.1,0.5,0.1c0.2,0,0.3,0,0.5-0.1c0.1-0.1,0.2-0.2,0.2-0.3c0-0.1-0.1-0.2-0.2-0.3c-0.1-0.1-0.3-0.1-0.5-0.2
		c-0.2-0.1-0.4-0.1-0.5-0.2c-0.2-0.1-0.3-0.2-0.5-0.3S4.7,14.3,4.7,14c0-0.3,0.1-0.6,0.4-0.8c0.2-0.2,0.6-0.3,0.9-0.3
		c0.2,0,0.3,0,0.4,0.1c0.1,0,0.3,0.1,0.4,0.1s0.2,0.1,0.2,0.1c0.1,0,0.1,0.1,0.1,0.1l0,0.1L6.8,14c0,0,0-0.1-0.1-0.1
		c0,0-0.1-0.1-0.2-0.1c-0.1-0.1-0.2-0.1-0.4-0.1c-0.2,0-0.3,0-0.4,0.1c-0.1,0.1-0.1,0.2-0.1,0.3c0,0.1,0.1,0.2,0.2,0.3
		c0.1,0.1,0.3,0.1,0.5,0.2c0.2,0.1,0.4,0.1,0.5,0.2c0.2,0.1,0.3,0.2,0.5,0.3s0.2,0.4,0.2,0.6C7.4,16,7.3,16.3,7,16.5z M9.8,16.8H9
		L7.6,13h0.9l1,2.8l1-2.8h0.9L9.8,16.8z M15,16.1C14.9,16.1,14.9,16.2,15,16.1c-0.1,0.1-0.2,0.2-0.3,0.3c-0.1,0.1-0.2,0.2-0.3,0.2
		c-0.1,0.1-0.3,0.1-0.5,0.2c-0.2,0.1-0.4,0.1-0.6,0.1c-0.6,0-1.1-0.2-1.4-0.6s-0.6-0.8-0.6-1.4c0-0.5,0.2-1,0.6-1.4
		c0.4-0.4,0.9-0.6,1.4-0.6c0.2,0,0.4,0,0.6,0.1c0.2,0.1,0.3,0.1,0.4,0.2c0.1,0.1,0.2,0.1,0.3,0.2c0.1,0.1,0.2,0.1,0.2,0.2l0.1,0.1
		l-0.5,0.5c0,0,0,0,0-0.1c0,0-0.1-0.1-0.1-0.1c-0.1-0.1-0.1-0.1-0.2-0.2c-0.1,0-0.2-0.1-0.3-0.1c-0.1,0-0.2-0.1-0.4-0.1
		c-0.3,0-0.6,0.1-0.9,0.4c-0.2,0.2-0.4,0.5-0.4,0.9s0.1,0.6,0.4,0.9s0.5,0.4,0.9,0.4c0.2,0,0.3,0,0.5-0.1c0.1,0,0.2-0.1,0.3-0.2
		l0.1-0.1v-0.5h-0.7v-0.6H15V16.1z"/>
</g>
<g id="EPS" class="st2">
	<g class="st10">
		<path class="st27" d="M10.3,13.7H9.6v1.1h0.7c0.2,0,0.3-0.1,0.4-0.2s0.2-0.2,0.2-0.4c0-0.1-0.1-0.3-0.2-0.4S10.5,13.7,10.3,13.7z"
			/>
		<path class="st27" d="M16.9,11.1H2.9c-0.6,0-1,0.5-1,1.1v5.3c0,0.6,0.5,1.1,1,1.1h13.9c0.6,0,1-0.5,1-1.1v-5.3
			C17.9,11.6,17.4,11.1,16.9,11.1z M8.1,16.8H5.3V13H8v0.7H6.1v0.7h1.5v0.7H6.1V16h2V16.8z M11.3,15.2c-0.3,0.2-0.6,0.4-1,0.4H9.6
			v1.2H8.7V13h1.6c0.4,0,0.7,0.1,1,0.4c0.3,0.2,0.4,0.5,0.4,0.9S11.5,14.9,11.3,15.2z M14.4,16.5c-0.3,0.2-0.6,0.3-1,0.3
			c-0.2,0-0.3,0-0.5-0.1c-0.2,0-0.3-0.1-0.4-0.2c-0.1-0.1-0.2-0.1-0.3-0.2c-0.1-0.1-0.1-0.1-0.2-0.2L12,16.2l0.5-0.5
			c0,0,0.1,0.1,0.1,0.1c0,0,0.1,0.1,0.3,0.2c0.2,0.1,0.3,0.1,0.5,0.1c0.2,0,0.3,0,0.5-0.1c0.1-0.1,0.2-0.2,0.2-0.3
			c0-0.1-0.1-0.2-0.2-0.3c-0.1-0.1-0.3-0.1-0.5-0.2c-0.2-0.1-0.4-0.1-0.5-0.2c-0.2-0.1-0.3-0.2-0.5-0.3s-0.2-0.4-0.2-0.6
			c0-0.3,0.1-0.6,0.4-0.8c0.2-0.2,0.6-0.3,0.9-0.3c0.2,0,0.3,0,0.4,0.1c0.1,0,0.3,0.1,0.4,0.1c0.1,0,0.2,0.1,0.2,0.1
			c0.1,0,0.1,0.1,0.1,0.1l0,0.1L14.1,14c0,0-0.1-0.1-0.1-0.1c0,0-0.1-0.1-0.2-0.1s-0.2-0.1-0.4-0.1c-0.2,0-0.3,0-0.4,0.1
			c-0.1,0.1-0.1,0.2-0.1,0.3c0,0.1,0.1,0.2,0.2,0.3c0.1,0.1,0.3,0.1,0.5,0.2c0.2,0.1,0.4,0.1,0.5,0.2c0.2,0.1,0.3,0.2,0.5,0.3
			s0.2,0.4,0.2,0.6C14.8,16,14.7,16.3,14.4,16.5z"/>
	</g>
</g>
<g id="AI_00000151531731059968394340000011659741416355730084_" class="st2">
	<g class="st10">
		<polygon class="st28" points="8.6,15.2 9.5,15.2 9,14 		"/>
		<path class="st28" d="M16.9,11.1H2.9c-0.6,0-1,0.5-1,1.1v5.3c0,0.6,0.5,1.1,1,1.1h13.9c0.6,0,1-0.5,1-1.1v-5.3
			C17.9,11.6,17.4,11.1,16.9,11.1z M10.1,16.8l-0.3-0.9H8.3L8,16.8H7.1L8.6,13h0.9l1.5,3.7H10.1z M12.3,16.8h-0.8V13h0.8V16.8z"/>
	</g>
</g>
<g id="ZIP" class="st2">
	<g class="st10">
		<path class="st29" d="M12.7,13.7h-0.7v1.1h0.7c0.2,0,0.3-0.1,0.4-0.2c0.1-0.1,0.2-0.2,0.2-0.4c0-0.1-0.1-0.3-0.2-0.4
			C12.9,13.8,12.8,13.7,12.7,13.7z"/>
		<path class="st29" d="M16.9,11.1H2.9c-0.6,0-1,0.5-1,1.1v5.3c0,0.6,0.5,1.1,1,1.1h13.9c0.6,0,1-0.5,1-1.1v-5.3
			C17.9,11.6,17.4,11.1,16.9,11.1z M8.7,16.8H5.8V16l1.9-2.3H5.9V13h2.8v0.7L6.8,16h2V16.8z M10.2,16.8H9.4V13h0.8V16.8z M13.6,15.2
			c-0.3,0.2-0.6,0.4-1,0.4h-0.8v1.2h-0.8V13h1.6c0.4,0,0.7,0.1,1,0.4c0.3,0.2,0.4,0.5,0.4,0.9S13.9,14.9,13.6,15.2z"/>
	</g>
</g>
<g id="_x37_z_00000044870790511026774710000000917571703898238083_" class="st2">
	<path class="st30" d="M16.9,11.1H2.9c-0.6,0-1,0.5-1,1.1v5.3c0,0.6,0.5,1.1,1,1.1h13.9c0.6,0,1-0.5,1-1.1v-5.3
		C17.9,11.6,17.4,11.1,16.9,11.1z M9.9,13.7l-1.5,3.1H7.6l1.4-3H7.3V13h2.6V13.7z M12.4,16.8h-2.2v-0.6l1.3-1.3h-1.2v-0.6h2.1v0.6
		l-1.3,1.3h1.3V16.8z"/>
</g>
</svg>
