<?xml version="1.0" encoding="utf-8"?>
<!-- Generator: Adobe Illustrator 26.5.1, SVG Export Plug-In . SVG Version: 6.00 Build 0)  -->
<svg version="1.1" id="Layer_1" xmlns="http://www.w3.org/2000/svg" xmlns:xlink="http://www.w3.org/1999/xlink" x="0px" y="0px"
	 viewBox="0 0 24 24" style="enable-background:new 0 0 24 24;" xml:space="preserve">
<style type="text/css">
	.st0{fill:none;stroke:#000000;stroke-width:1.5;stroke-miterlimit:10;}
	.st1{fill:none;stroke:#000000;stroke-width:1.5;stroke-linecap:round;stroke-linejoin:round;}
</style>
<g>
	<path class="st0" d="M23.1,12c0,1.1-2.1,1.8-2.4,2.8c-0.3,1,0.9,2.8,0.3,3.7c-0.6,0.8-2.8,0.2-3.6,0.8c-0.8,0.6-0.9,2.9-1.9,3.2
		c-1,0.3-2.3-1.5-3.4-1.5c-1.1,0-2.4,1.8-3.4,1.5c-1-0.3-1.1-2.6-1.9-3.2c-0.8-0.6-3,0-3.6-0.8c-0.6-0.8,0.7-2.7,0.3-3.7
		c-0.3-1-2.4-1.7-2.4-2.8c0-1.1,2.1-1.8,2.4-2.8c0.3-1-0.9-2.8-0.3-3.7c0.6-0.8,2.8-0.2,3.6-0.8c0.8-0.6,0.9-2.9,1.9-3.2
		C9.7,1.2,11,3,12.1,3c1.1,0,2.4-1.8,3.4-1.5c1,0.3,1.1,2.6,1.9,3.2c0.8,0.6,3,0,3.6,0.8c0.6,0.8-0.7,2.7-0.3,3.7
		C21,10.2,23.1,10.9,23.1,12z"/>
</g>
<polyline class="st1" points="17.7,8.7 10.6,15.8 6.4,11.7 "/>
</svg>
