<?xml version="1.0" encoding="utf-8"?>
<!-- Generator: Adobe Illustrator 27.2.0, SVG Export Plug-In . SVG Version: 6.00 Build 0)  -->
<svg version="1.1" id="Layer_1" xmlns="http://www.w3.org/2000/svg" xmlns:xlink="http://www.w3.org/1999/xlink" x="0px" y="0px"
	 viewBox="0 0 24 24" style="enable-background:new 0 0 24 24;" xml:space="preserve">
<style type="text/css">
	.st0{fill:none;stroke:#121212;stroke-width:1.5;stroke-linecap:round;stroke-linejoin:round;}
	.st1{fill:#121212;}
</style>
<g>
	<path class="st0" d="M20.6,19c1.4-1,2.3-2.5,2.3-4.2c0-3-3-5.5-6.6-5.5s-6.6,2.5-6.6,5.5s3,5.5,6.6,5.5c0.8,0,1.5-0.1,2.2-0.3
		l2.4,1.5L20.6,19z M16.9,8.9C16.3,5.8,13,3.4,9,3.4c-4.4,0-7.9,3-7.9,6.6c0,2,1.1,3.8,2.7,5l-0.6,2.7l3.3-1.4
		c0.8,0.2,1.7,0.4,2.6,0.4h0.4"/>
</g>
<circle class="st1" cx="6.4" cy="7.9" r="0.8"/>
<circle class="st1" cx="11.7" cy="7.9" r="0.8"/>
<circle class="st1" cx="14.1" cy="13.1" r="0.8"/>
<circle class="st1" cx="18.5" cy="13.1" r="0.8"/>
</svg>
