<?xml version="1.0" encoding="utf-8"?>
<!-- Generator: Adobe Illustrator 27.2.0, SVG Export Plug-In . SVG Version: 6.00 Build 0)  -->
<svg version="1.1" id="Layer_1" xmlns="http://www.w3.org/2000/svg" xmlns:xlink="http://www.w3.org/1999/xlink" x="0px" y="0px"
	 viewBox="0 0 24 24" style="enable-background:new 0 0 24 24;" xml:space="preserve">
<style type="text/css">
	.st0{fill:none;stroke:#121212;stroke-width:1.5;stroke-linecap:round;stroke-linejoin:round;}
	.st1{fill-rule:evenodd;clip-rule:evenodd;fill:#121212;}
</style>
<g>
	<g>
		<path class="st0" d="M12,2.9c-4.9,0-8.9,4-8.9,8.9c0,2,0.6,3.8,1.7,5.2l-1.1,3.3l3.4-1.1c1.4,0.9,3.1,1.5,4.9,1.5
			c4.9,0,8.9-4,8.9-8.9C20.9,6.9,16.9,2.9,12,2.9z"/>
	</g>
</g>
<path class="st1" d="M9.9,7.8C9.7,7.3,9.5,7.4,9.3,7.4c-0.1,0-0.3,0-0.4,0c-0.2,0-0.4,0-0.6,0.3C8.1,7.9,7.4,8.4,7.4,9.5
	c0,1.1,0.7,2.3,0.9,2.4c0.1,0.2,1.5,2.6,3.8,3.6c2.3,1,2.3,0.7,2.7,0.7c0.4,0,1.4-0.5,1.6-1c0.2-0.5,0.2-1,0.2-1.1
	c-0.1-0.1-0.2-0.2-0.4-0.3c-0.2-0.1-1.3-0.7-1.5-0.8c-0.2-0.1-0.4-0.1-0.5,0.1c-0.2,0.2-0.6,0.7-0.8,0.9c-0.1,0.1-0.3,0.2-0.5,0
	c-0.2-0.1-1-0.4-1.8-1.2c-0.7-0.6-1.1-1.4-1.2-1.6c-0.1-0.2,0-0.4,0.1-0.5c0.1-0.1,0.2-0.3,0.4-0.4c0.1-0.1,0.2-0.2,0.2-0.4
	c0.1-0.2,0-0.3,0-0.4C10.4,9.4,10,8.3,9.9,7.8z"/>
</svg>
